<?xml version="1.0" encoding="UTF-8" standalone="no"?>
<!-- Created with Inkscape (http://www.inkscape.org/) -->

<svg
   xmlns:dc="http://purl.org/dc/elements/1.1/"
   xmlns:cc="http://creativecommons.org/ns#"
   xmlns:rdf="http://www.w3.org/1999/02/22-rdf-syntax-ns#"
   xmlns:svg="http://www.w3.org/2000/svg"
   xmlns="http://www.w3.org/2000/svg"
   xmlns:sodipodi="http://sodipodi.sourceforge.net/DTD/sodipodi-0.dtd"
   xmlns:inkscape="http://www.inkscape.org/namespaces/inkscape"
   version="1.1"
   id="svg69"
   width="120"
   height="211.618"
   viewBox="0 0 120 211.61799"
   sodipodi:docname="arrow.svg"
   inkscape:version="0.92.4 (unknown)">
  <path
     style="fill:#fff;stroke-width:1.33333337"
     d="m 4.20909,207.53389 c -3.0613,-2.79606 -4.25798,-4.9621 -3.96381,-7.17464 0.26508,-1.99376 16.00041,-19.81969 42.42139,-48.05752 23.1,-24.68847 42.16302,-45.34893 42.36226,-45.91213 C 85.22817,105.82641 66.17817,84.850886 42.69559,59.777334 10.75044,25.667855 0,13.368944 0,10.931961 0,5.2358952 11.0699,-1.4143811 17.75749,0.26409611 19.76789,0.76867601 35.44193,16.1379 57.53754,39.270558 77.5919,60.266146 99.85,83.4 107,90.679122 c 7.15,7.27912 13,14.094868 13,15.146098 0,1.05124 -20.17287,23.01693 -44.8286,48.81265 -58.80383,61.52268 -53.86397,56.90129 -60.82262,56.90129 -4.53345,0 -6.68497,-0.84987 -10.13969,-4.00527 z"
     id="path79"
     inkscape:connector-curvature="0" />
</svg>
