<?xml version="1.0" encoding="UTF-8" standalone="no"?>
<!-- Created with Inkscape (http://www.inkscape.org/) -->

<svg
   xmlns:dc="http://purl.org/dc/elements/1.1/"
   xmlns:cc="http://creativecommons.org/ns#"
   xmlns:rdf="http://www.w3.org/1999/02/22-rdf-syntax-ns#"
   xmlns:svg="http://www.w3.org/2000/svg"
   xmlns="http://www.w3.org/2000/svg"
   xmlns:sodipodi="http://sodipodi.sourceforge.net/DTD/sodipodi-0.dtd"
   xmlns:inkscape="http://www.inkscape.org/namespaces/inkscape"
   version="1.1"
   id="svg61"
   width="266.65668"
   height="265.65698"
   viewBox="0 0 266.65668 265.65699"
   sodipodi:docname="benefit-icon-3.svg"
   inkscape:version="0.92.4 (unknown)">
  <path
     style="stroke-width:1.33333325"
     d="m 58.692201,263.0832 c -7.61057,-3.93081 -10.82851,-9.56062 -11.70483,-20.47769 -0.59626,-7.42811 -1.04889,-8.60552 -3.30822,-8.60552 -1.4396,0 -4.65745,-2.04 -7.15079,-4.53333 l -4.53333,-4.53334 v -32.79999 -32.8 h -8.70949 c -10.79943,0 -17.0968805,-2.52426 -20.5896605,-8.2531 C 0.23019053,147.03601 0.00458053,144.39614 2.0531907e-5,119.53483 -0.00497947,90.039135 0.89897053,85.440903 7.3886905,81.967711 10.337381,80.389623 10.661701,79.375355 10.661701,71.731867 c 0,-13.980999 4.73351,-21.180541 16.18053,-24.610153 l 5.1528,-1.543815 0.0585,-8.788951 c 0.10224,-15.352956 6.08879,-25.791627 18.84341,-32.8570024 L 57.995011,0 h 75.333329 75.33333 l 7.09807,3.9319456 c 12.75462,7.0653754 18.74117,17.5040464 18.84341,32.8570024 l 0.0585,8.788951 5.1528,1.543815 c 11.44702,3.429612 16.18052,10.629154 16.18052,24.610153 0,7.643488 0.32432,8.657756 3.273,10.235844 6.48972,3.473192 7.39411,8.071424 7.38868,37.567119 -0.004,24.86131 -0.23017,27.50118 -2.69585,31.5454 -3.49279,5.72884 -9.79024,8.2531 -20.58967,8.2531 h -8.70949 v 32.8 32.79999 l -4.53333,4.53334 c -2.49334,2.49333 -5.71119,4.53333 -7.15079,4.53333 -2.25933,0 -2.71196,1.17741 -3.30823,8.60552 -0.8763,10.91707 -4.09425,16.54688 -11.70482,20.47769 -14.29199,7.38172 -27.97171,-1.7263 -29.30283,-19.50997 l -0.66663,-8.90657 -12.65295,-0.66667 c -10.81276,-0.56971 -12.71943,-1.01533 -13.11009,-3.06405 -1.13194,-5.93594 0.7996,-6.26928 36.32629,-6.26928 24.33228,0 34.01037,-0.4403 35.17008,-1.6 1.0624,-1.0624 1.6,-6.84991 1.6,-17.22459 v -15.6246 l -16.57422,-0.44206 c -14.30927,-0.38167 -17.08789,-0.82324 -20.33333,-3.23135 -5.02817,-3.73089 -9.75912,-10.87703 -9.75912,-14.74124 v -3.13616 H 133.32834 87.995011 v 3.13616 c 0,3.86421 -4.73095,11.01035 -9.75913,14.74124 -3.24543,2.40811 -6.02404,2.84968 -20.33333,3.23135 l -16.57421,0.44206 v 15.6246 c 0,10.37468 0.53761,16.16219 1.6,17.22459 1.15972,1.1597 10.8378,1.6 35.17008,1.6 35.526699,0 37.458219,0.33334 36.326299,6.26928 -0.39067,2.04872 -2.29734,2.49434 -13.1101,3.06405 l -12.652939,0.66667 -0.66667,8.90657 c -1.33113,17.78367 -15.01084,26.89169 -29.30283,19.50997 z m 16.11447,-10.26582 c 2.60339,-2.1081 3.11366,-3.7832 3.14771,-10.33334 l 0.0406,-7.81738 -10.33333,-0.38942 -10.33333,-0.38942 v 7.63681 c 0,6.00584 0.61915,8.29588 2.89908,10.72276 3.58653,3.81768 10.24691,4.07808 14.57923,0.56999 z m 131.435749,-0.38314 c 2.5457,-2.39157 3.08594,-4.26873 3.08594,-10.72276 v -7.82366 l -10.33333,0.38942 -10.33334,0.38942 0.0407,7.81738 c 0.034,6.55014 0.54433,8.22524 3.14772,10.33334 4.17313,3.37918 10.56878,3.20893 14.39237,-0.38314 z M 74.398121,176.99999 c 1.48419,-1.28333 3.09109,-3.68333 3.5709,-5.33333 l 0.87238,-3 h -18.75652 -18.75652 v 5.33333 5.33334 h 15.18562 c 12.54561,0 15.65476,-0.40566 17.88414,-2.33334 z m 150.930239,-3 v -5.33333 h -18.75652 -18.75652 l 0.87239,3 c 1.89446,6.51485 5.1178,7.66667 21.45502,7.66667 h 15.18563 z m 0,-66 V 56.666665 h -92 -91.999999 v 51.333325 51.33334 h 91.999999 92 z m -84.57407,26.56879 c -1.15093,-1.15093 -2.0926,-2.80566 -2.0926,-3.67719 0,-2.49923 49.7641,-51.558259 52.29926,-51.558259 1.25046,0 2.95865,1.280052 3.79594,2.844561 1.39298,2.602784 -0.55794,4.933265 -22.95308,27.418668 -13.4615,13.51577 -25.48378,25.13453 -26.71618,25.81946 -1.57319,0.87435 -2.86418,0.62193 -4.33334,-0.84724 z m -74.164409,-2.0363 c -1.36233,-2.54555 0.78644,-5.09779 23.57366,-28 13.789939,-13.859532 26.023369,-25.199149 27.185389,-25.199149 2.66068,0 5.31276,2.588185 5.31276,5.184772 0,1.091625 -10.92872,12.971625 -24.286039,26.399997 -25.11873,25.25233 -28.57937,27.60557 -31.78577,21.61438 z m -34.90267,-13.53249 -0.35885,-29.666659 -7.63193,-0.398836 c -13.49384,-0.705171 -13.03473,-1.769694 -13.03473,30.223525 0,15.25197 0.4,28.13087 0.88889,28.61975 0.48889,0.48889 5.30037,0.88889 10.69217,0.88889 h 9.80329 z m 224.000809,0.72768 c 0.41535,-32.648631 0.88816,-31.504725 -12.72773,-30.793175 l -7.63193,0.398836 -0.35899,29.723209 -0.359,29.72321 10.359,-0.38988 10.35899,-0.38988 z M 31.995031,67.999998 c 0,-9.920916 -0.29079,-11.328049 -2.33333,-11.290929 -5.58796,0.101552 -9.66667,6.777481 -9.66667,15.822173 0,6.254304 0.55478,6.802089 6.88889,6.802089 h 5.11111 z m 214.442209,6.789421 c 1.06146,-9.306597 -3.49204,-18.122754 -9.3603,-18.122754 -2.14329,0 -2.41525,1.284796 -2.41525,11.409997 v 11.409997 l 5.66667,-0.409997 c 5.15233,-0.372784 5.7068,-0.761916 6.10888,-4.287243 z m -21.10888,-36.5069 c 0,-9.541648 -3.89516,-17.785635 -11.12163,-23.538565 -4.69881,-3.740682 -6.10227,-4.115759 -17,-4.543285 L 185.32836,9.7346709 v 6.1754901 c 0,8.318155 -2.92737,14.800013 -7.82875,17.334614 -6.01116,3.108488 -82.331349,3.108488 -88.342499,0 -4.90138,-2.534601 -7.82875,-9.016459 -7.82875,-17.334614 V 9.7346709 l -11.87837,0.4659981 c -10.89773,0.427526 -12.30119,0.802603 -17,4.543285 -7.22646,5.75293 -11.12163,13.996917 -11.12163,23.538565 v 7.717479 h 91.999999 92 z m -52.26667,-13.88252 c 0.88,-0.88 1.6,-4.48 1.6,-8 V 9.9999989 H 133.32836 91.995031 v 6.4000001 c 0,3.52 0.72,7.12 1.6,8 2.28366,2.283665 77.182999,2.283665 79.466659,0 z M 129.2356,231.88823 c -2.33864,-2.81791 -0.005,-6.55491 4.09276,-6.55491 4.09809,0 6.4314,3.737 4.09276,6.55491 -0.96393,1.16147 -2.80568,2.11176 -4.09276,2.11176 -1.28708,0 -3.12882,-0.95029 -4.09276,-2.11176 z"
     id="path101"
     inkscape:connector-curvature="0" />
</svg>
