<?xml version="1.0" encoding="UTF-8" standalone="no"?>
<!-- Created with Inkscape (http://www.inkscape.org/) -->

<svg
   xmlns:dc="http://purl.org/dc/elements/1.1/"
   xmlns:cc="http://creativecommons.org/ns#"
   xmlns:rdf="http://www.w3.org/1999/02/22-rdf-syntax-ns#"
   xmlns:svg="http://www.w3.org/2000/svg"
   xmlns="http://www.w3.org/2000/svg"
   xmlns:sodipodi="http://sodipodi.sourceforge.net/DTD/sodipodi-0.dtd"
   xmlns:inkscape="http://www.inkscape.org/namespaces/inkscape"
   version="1.1"
   id="svg71"
   width="264.95834"
   height="265.37552"
   viewBox="0 0 264.95835 265.37552"
   sodipodi:docname="benefit-icon-2.svg"
   inkscape:version="0.92.4 (unknown)">
  <path
     style="stroke-width:1.33333325"
     d="M 119.81252,265.02898 C 99.11722,262.10104 86.95569,258.43176 71.13395,250.34207 35.72009,232.23488 10.37315,198.25657 1.6119899,157.14585 -0.55386007,146.98287 -0.53271007,118.26969 1.6482899,107.81251 13.03762,53.205341 53.20531,13.037649 107.81248,1.6483239 c 10.45718,-2.1810362 39.17036,-2.2021894 49.33334,-0.036344 54.90375,11.7006131 94.77274,51.5832531 106.16417,106.2005301 2.18104,10.45718 2.2022,39.17036 0.0364,49.33334 -11.51805,54.04711 -50.88744,94.15383 -103.53385,105.47289 -9.48611,2.03953 -32.72341,3.43972 -40,2.41024 z m 45.33334,-13.73352 c 35.85755,-10.80219 63.17781,-34.12234 78.53736,-67.03827 9.081,-19.46082 10.79596,-27.68586 10.79596,-51.77801 0,-24.09214 -1.71496,-32.31719 -10.79596,-51.778015 C 230.91137,53.330751 211.64365,34.055482 184.30146,21.296107 164.79491,12.19328 156.58292,10.479181 132.47919,10.479181 c -24.10373,0 -32.31572,1.714099 -51.82227,10.816926 -27.3422,12.759375 -46.60991,32.034644 -59.38177,59.405058 -9.081,19.460825 -10.79596,27.685875 -10.79596,51.778015 0,24.09215 1.71496,32.31719 10.79596,51.77801 16.66169,35.70644 46.94404,59.84704 86.53737,68.9862 12.21835,2.82031 45.22816,1.69879 57.33334,-1.94793 z m -53.33334,-23.36338 c -11.45648,-2.63316 -25.85509,-8.69077 -27.36542,-11.51286 -1.82812,-3.41588 -0.21396,-6.60671 3.34216,-6.60671 1.66363,0 6.24944,1.41447 10.19069,3.14325 11.50274,5.04556 20.84643,6.77611 35.83257,6.63659 24.80052,-0.23089 44.40256,-8.86469 62.04027,-27.32588 7.23049,-7.56806 11.15385,-13.12652 15.06505,-21.3435 6.86885,-14.43064 8.82236,-22.94316 8.82236,-38.44379 0,-15.41469 -1.96107,-24.0446 -8.63516,-38.000001 -11.11453,-23.240293 -33.6139,-41.46752 -58.62585,-47.49407 -9.42461,-2.27083 -30.57539,-2.27083 -40,0 C 96.17018,50.914713 76.95122,62.6321 65.98586,75.33109 44.70087,99.981255 39.00111,137.33791 52.0026,166.97842 c 3.6314,8.27877 3.8998,11.21303 1.22848,13.43003 -3.51078,2.91369 -7.01792,-0.72634 -11.23442,-11.66007 -5.49458,-14.24793 -7.31446,-26.01371 -6.51328,-42.10924 1.24815,-25.075 10.03889,-44.553473 28.35392,-62.826415 12.367,-12.338577 21.30162,-17.989073 37.62694,-23.796279 11.02968,-3.923458 12.76059,-4.155363 31.01495,-4.155363 18.25436,0 19.98527,0.231905 31.01495,4.155363 16.32532,5.807206 25.25994,11.457702 37.62693,23.796279 12.17905,12.151062 19.18941,23.296445 24.32089,38.666455 3.19173,9.55998 3.56609,12.67255 3.60827,30 0.0445,18.31549 -0.17171,19.94833 -4.10831,31.01495 -5.81435,16.3454 -11.46507,25.27116 -23.82085,37.62693 -12.43572,12.43572 -21.42225,18.09884 -37.62693,23.71165 -9.96342,3.45104 -14.03499,4.11176 -27.68162,4.49213 -10.38542,0.28947 -18.80729,-0.19926 -24,-1.39276 z m -48.4,-26.38624 c -3.98078,-3.98077 0.43428,-10.2125 5.36557,-7.57335 2.93646,1.57153 3.11269,7.26886 0.25871,8.36403 -2.97688,1.14234 -3.80812,1.02548 -5.62428,-0.79068 z m 56.4,-20.78582 c -9.558,-4.63425 -18.29292,-13.68603 -22.88387,-23.71397 -3.26955,-7.14166 -3.38537,-7.23354 -9.11863,-7.23354 -5.43096,0 -9.9975,-2.43609 -9.9975,-5.33333 0,-2.60092 4.48895,-5.33333 8.76191,-5.33333 4.5291,0 4.57142,-0.0556 4.57142,-6 0,-5.94445 -0.0423,-6 -4.57142,-6 -4.27296,0 -8.76191,-2.73241 -8.76191,-5.33334 0,-2.8278 4.56935,-5.33488 9.76191,-5.35608 5.47112,-0.0224 5.62839,-0.15435 8.7357,-7.33225 5.47624,-12.650121 16.66763,-23.325101 28.53955,-27.222641 7.8489,-2.576784 21.20355,-1.966524 28.83818,1.317802 7.19521,3.095302 8.85632,5.401363 6.73964,9.356427 -1.74872,3.267506 -3.45472,3.228266 -11.34252,-0.260885 -8.73276,-3.862915 -19.72427,-2.922165 -28.37952,2.428971 -5.96982,3.690851 -16.22627,16.309286 -16.22627,19.963056 0,1.38371 3.81944,1.77227 17.42099,1.77227 17.9484,0 22.57901,1.04872 22.57901,5.11358 0,4.92186 -2.59575,5.55309 -22.83557,5.55309 -21.52515,0 -21.24876,-0.11488 -20.0491,8.33333 l 0.52067,3.66667 h 14.60299 c 15.24743,0 19.76101,1.16798 19.76101,5.11357 0,4.67572 -2.78073,5.55309 -17.6,5.55309 -7.92,0 -14.4,0.39747 -14.4,0.88327 0,0.4858 1.833,3.73976 4.07334,7.23103 9.6686,15.06721 26.64449,21.06985 41.07226,14.52309 6.93639,-3.14747 8.6774,-3.26052 10.80129,-0.70137 4.8993,5.90328 -4.87984,11.58105 -21.28022,12.35529 -10.37545,0.48983 -12.00949,0.2072 -19.33334,-3.3438 z"
     id="path164"
     inkscape:connector-curvature="0" />
</svg>
