<?xml version="1.0" encoding="UTF-8" standalone="no"?>
<!-- Created with Inkscape (http://www.inkscape.org/) -->

<svg
   xmlns:dc="http://purl.org/dc/elements/1.1/"
   xmlns:cc="http://creativecommons.org/ns#"
   xmlns:rdf="http://www.w3.org/1999/02/22-rdf-syntax-ns#"
   xmlns:svg="http://www.w3.org/2000/svg"
   xmlns="http://www.w3.org/2000/svg"
   xmlns:sodipodi="http://sodipodi.sourceforge.net/DTD/sodipodi-0.dtd"
   xmlns:inkscape="http://www.inkscape.org/namespaces/inkscape"
   version="1.1"
   id="svg91"
   width="266.94751"
   height="266.74701"
   viewBox="0 0 266.94751 266.74701"
   sodipodi:docname="benefit-icon-4.svg"
   inkscape:version="0.92.4 (unknown)">
  <path
     style="stroke-width:1.33333325"
     d="m 1.7404275,265.147 c -2.32057,-2.32057 -2.32057,-261.1460791 0,-263.4666561 2.34753,-2.34752899 29.5850305,-2.18854799 31.5542195,0.184176 1.015731,1.223882 1.590391,18.0771331 1.82993,53.6666651 l 0.349191,51.882485 9,0.39425 9,0.39426 V 84.407932 c 0,-16.728867 0.47509,-24.269355 1.6,-25.394256 0.98671,-0.986716 5.83035,-1.6 12.63658,-1.6 h 11.03659 l 0.363409,-24.333333 0.36341,-24.3333331 h 54.000003 54 l 0.36341,24.3333331 0.36342,24.333333 h 11.03658 c 6.80624,0 11.64987,0.613284 12.63659,1.6 1.1249,1.124901 1.6,8.665389 1.6,25.394256 v 23.794248 l 9,-0.39426 9,-0.39425 0.34918,-51.882485 c 0.23954,-35.589532 0.8142,-52.4427831 1.82994,-53.6666651 1.96918,-2.37272399 29.20668,-2.53170499 31.55421,-0.184176 2.32057,2.320577 2.32057,261.1460861 0,263.4666561 -1.04319,1.04319 -6.51852,1.6 -15.73333,1.6 -9.21482,0 -14.69015,-0.55681 -15.73334,-1.6 -1.01481,-1.01481 -1.6,-6.13052 -1.6,-13.98732 v -12.38731 l -64.85494,-0.34602 c -60.09655,-0.32063 -64.9629,-0.51722 -66.32651,-2.67935 -1.073203,-1.70168 -1.073203,-2.96499 0,-4.66667 1.36361,-2.16213 6.22996,-2.35872 66.32651,-2.67934 l 64.85494,-0.34603 v -5.32064 -5.32065 H 133.47376 34.807097 v 5.33333 5.33333 h 16.571431 c 13.28715,0 16.986679,0.41526 18.666659,2.09524 2.63144,2.63144 2.63144,3.84475 0,6.47619 -1.67998,1.67999 -5.379509,2.09524 -18.666659,2.09524 H 34.807097 v 12.4 c 0,7.86667 -0.584949,12.98495 -1.6,14 -1.04319,1.04319 -6.51852,1.6 -15.73333,1.6 -9.2148195,0 -14.6901495,-0.55681 -15.7333395,-1.6 z M 25.473768,133.41367 V 10.74701 h -7.33334 -7.33333 v 122.66666 122.66666 h 7.33333 7.33334 z m 230.666652,0 V 10.74701 h -7.33333 -7.33333 v 122.66666 122.66666 h 7.33333 7.33333 z M 53.473768,184.347 c 0,-16.68148 0.4754,-24.20873 1.6,-25.33333 2.30997,-2.30997 154.490012,-2.30997 156.799992,0 1.1249,1.12491 1.6,8.66539 1.6,25.39425 v 23.79425 l 9,-0.39425 9,-0.39425 0.35573,-34.28109 0.35575,-34.2811 -11.54819,-0.38557 c -9.27492,-0.30968 -11.83704,-0.84489 -13.01559,-2.71891 -1.06764,-1.69768 -1.06764,-2.96898 0,-4.66666 1.17815,-1.87338 3.73943,-2.40928 12.99319,-2.71858 l 11.52577,-0.38524 v -5.28143 -5.28142 H 133.47376 34.807098 v 5.33333 5.33334 h 66.571422 c 58.74171,0 66.81785,0.24643 68.66667,2.09524 2.63144,2.63144 2.63144,3.84474 0,6.47618 -1.84882,1.84882 -9.92496,2.09524 -68.66667,2.09524 H 34.807098 v 33.77778 c 0,18.57778 0.4,34.17778 0.88889,34.66666 0.48889,0.48889 4.68889,0.88889 9.33333,0.88889 h 8.44445 z m 133.599992,-47.2 c -4.02576,-4.02576 0.0632,-10.41108 4.98144,-7.77894 3.46679,1.85536 3.56037,6.18577 0.17288,7.9987 -3.21413,1.72015 -3.21443,1.72014 -5.15432,-0.21976 z m -83.6,66.26667 c 0,-3.96581 -0.0741,-4.00569 -8.666662,-4.66667 -8.59259,-0.66097 -8.66667,-0.70085 -8.66667,-4.66666 0,-3.96582 0.0741,-4.0057 8.66667,-4.66667 l 8.666662,-0.66667 0.38942,-10.33333 0.38942,-10.33333 H 83.529847 62.807097 v 19.1111 c 0,10.51112 0.41538,19.52649 0.92306,20.03419 0.50769,0.50768 9.65769,0.75768 20.33334,0.55554 l 19.410263,-0.3675 z m 50,0 V 198.747 h -7.83675 c -8.59902,0 -11.6511,-1.97886 -10.18356,-6.60268 0.75512,-2.37916 1.9707,-2.73065 9.4435,-2.73065 h 8.57681 V 178.747 168.08034 h -20 -20 v 20 19.99999 h 20 20 z m 50.41313,-0.2706 0.41313,-4.27059 -9.07979,-0.39608 -9.0798,-0.39606 v -4 c 0,-3.96582 0.0741,-4.0057 8.66666,-4.66667 l 8.66667,-0.66667 0.38941,-10.33333 0.38943,-10.33333 h -20.05609 -20.05608 v 20.03564 20.03565 l 19.66666,-0.36899 19.66667,-0.36897 z m -100.41313,-99.7294 c 0,-3.965808 -0.0741,-4.005698 -8.666662,-4.666658 -8.59259,-0.66097 -8.66667,-0.70086 -8.66667,-4.66667 0,-3.96581 0.0741,-4.0057 8.66667,-4.66667 l 8.666662,-0.66666 0.38942,-10.333337 0.38942,-10.333333 H 83.529847 62.807097 v 19.11111 c 0,10.51111 0.41538,19.526488 0.92306,20.034168 0.50769,0.50769 9.65769,0.75769 20.33334,0.55556 l 19.410263,-0.36751 z m 50,0 v -4.666658 h -7.83675 c -8.59902,0 -11.6511,-1.97887 -10.18356,-6.60269 0.75512,-2.37915 1.9707,-2.73065 9.4435,-2.73065 h 8.57681 V 78.747009 68.080342 h -20 -20 v 20 19.999998 h 20 20 z m 50.41313,-0.27059 0.41313,-4.270598 -9.07979,-0.39607 -9.0798,-0.39607 v -4 c 0,-3.96581 0.0741,-4.0057 8.66666,-4.66667 l 8.66667,-0.66666 0.38941,-10.333337 0.38943,-10.333333 h -20.05609 -20.05608 v 20.03564 20.035648 l 19.66666,-0.36898 19.66667,-0.36898 z M 128.14043,53.413676 c 0,-3.814137 -0.26331,-4.000845 -5.66667,-4.018207 -10.77319,-0.03461 -14.52379,-2.643212 -11.61497,-8.078382 1.12223,-2.096901 2.8397,-2.570077 9.32855,-2.570077 h 7.95309 V 28.080343 17.413677 h -20 -20.000002 v 19.999999 20 h 20.000002 20 z m 50.66666,0 c 0,-3.843153 -0.23186,-4 -5.9132,-4 -7.73756,0 -12.75346,-1.979725 -12.75346,-5.033665 0,-4.140499 2.89686,-5.633001 10.93333,-5.633001 h 7.73333 V 28.080343 17.413677 h -20 -20 v 19.999999 20 h 20 20 z M 82.235668,236.65176 c -1.15238,-1.15237 -2.09524,-2.60952 -2.09524,-3.23809 0,-1.48119 3.85214,-5.33334 5.33333,-5.33334 0.62858,0 2.08572,0.94286 3.2381,2.09524 1.15238,1.15238 2.095239,2.60952 2.095239,3.2381 0,0.62857 -0.942859,2.08572 -2.095239,3.23809 -1.15238,1.15239 -2.60952,2.09524 -3.2381,2.09524 -0.62857,0 -2.08571,-0.94285 -3.23809,-2.09524 z"
     id="path122"
     inkscape:connector-curvature="0" />
</svg>
