<?xml version="1.0" encoding="UTF-8" standalone="no"?>
<!-- Created with Inkscape (http://www.inkscape.org/) -->

<svg
   xmlns:dc="http://purl.org/dc/elements/1.1/"
   xmlns:cc="http://creativecommons.org/ns#"
   xmlns:rdf="http://www.w3.org/1999/02/22-rdf-syntax-ns#"
   xmlns:svg="http://www.w3.org/2000/svg"
   xmlns="http://www.w3.org/2000/svg"
   xmlns:sodipodi="http://sodipodi.sourceforge.net/DTD/sodipodi-0.dtd"
   xmlns:inkscape="http://www.inkscape.org/namespaces/inkscape"
   version="1.1"
   id="svg81"
   width="266.66666"
   height="320"
   viewBox="0 0 266.66666 320"
   sodipodi:docname="benefit-icon-1.svg"
   inkscape:version="0.92.4 (unknown)">
  <path
     style="stroke-width:1.33333337"
     d="M 2.20665,317.56168 C 0.17992,315.32216 0,302.45672 0,159.76833 0,10.956225 0.10269,4.3203649 2.43832,2.2066501 4.64881,0.2061828 12.17717,0 83.00975,0 c 69.25231,0 78.37126,0.2381495 80.22834,2.0952381 1.80649,1.8064928 2.09524,7.3189034 2.09524,40.0000009 V 80 h 49.28642 c 47.36343,0 49.34027,0.100627 50.66667,2.579012 0.92089,1.720701 1.38024,40.922988 1.38024,117.793348 0,109.92445 -0.112,115.31565 -2.43832,117.42099 C 261.99491,319.81457 250.97643,320 133.10166,320 10.12379,320 4.31538,319.8918 2.20665,317.56168 Z m 81.5017,-27.47528 c 0.21585,-9.92735 0.99247,-17.99093 1.82992,-19 2.80255,-3.37687 6.90526,-1.68296 16.31099,6.7344 l 9.48407,8.48748 9.27158,-8.48748 c 9.14188,-8.36875 13.25823,-10.09099 16.46175,-6.88747 1.08404,1.08404 1.6,7.31852 1.6,19.33334 V 308 H 146 153.33333 V 237.33333 166.66667 H 146 138.66666 v 17.23809 c 0,13.89321 -0.40656,17.64465 -2.09524,19.33333 -3.43467,3.43468 -5.56007,2.51811 -15.23809,-6.57142 C 116.25805,191.9 111.60673,188 110.99705,188 c -0.60967,0 -3.78342,2.73641 -7.05278,6.08091 -8.53487,8.73104 -13.80747,11.77625 -17.22399,9.94778 C 84.18889,202.67393 84,201.32619 84,184.61976 V 166.66667 H 48 12 v 69.77777 c 0,38.37779 0.40975,70.18753 0.91055,70.68833 0.5008,0.5008 16.5508,0.7508 35.66667,0.55556 l 34.75611,-0.355 z M 46.33333,275.8932 C 44.22325,274.6642 44,271.73387 44,245.26708 44,229.17019 43.62921,216 43.17602,216 c -0.45319,0 -2.87407,1.8 -5.37973,4 -2.50566,2.2 -5.34188,4 -6.3027,4 -2.90933,0 -6.47467,-4.90888 -5.58994,-7.69641 1.0646,-3.3543 21.25195,-22.97026 23.63934,-22.97026 2.6181,0 23.79034,21.59551 23.79034,24.26595 0,2.69187 -3.50496,6.40072 -6.04884,6.40072 -1.0221,0 -3.97925,-1.86216 -6.57143,-4.13812 L 56,215.72376 v 28.13812 c 0,26.36035 -0.16848,28.3066 -2.66667,30.80479 -3.01347,3.01348 -3.71958,3.1372 -7,1.22653 z m 80.33333,22.64991 v -9.4569 l -6.81087,6.12356 c -3.74598,3.36796 -7.67168,6.12356 -8.72379,6.12356 -1.0521,0 -4.88721,-2.7821 -8.52246,-6.18245 L 96,288.96843 V 298.48421 308 h 15.33333 15.33333 z M 254.34121,199.66667 254.68243,92 h -44.67456 -44.67454 v 108.01797 108.01798 l 44.33333,-0.35131 44.33333,-0.35131 z m -72.00788,90.8932 C 180.19248,289.31293 180,285.87355 180,248.86708 c 0,-29.59292 0.42608,-40.75983 1.6,-41.93375 1.1363,-1.1363 9.22328,-1.6 27.90475,-1.6 22.13564,0 26.63684,0.33208 28.4,2.09524 1.8096,1.8096 2.09524,7.43146 2.09524,41.2381 0,33.80664 -0.28564,39.42849 -2.09524,41.23809 -1.76213,1.76215 -6.16053,2.0888 -27.66666,2.05469 -14.87624,-0.0236 -26.54733,-0.60896 -27.90476,-1.39958 z m 45.3579,-42.22654 0.35791,-31 H 210.02457 192 v 31.37204 31.37203 l 17.66666,-0.37203 17.66667,-0.37204 z M 181.6,190.4 c -0.88,-0.88 -1.6,-2.86 -1.6,-4.4 0,-5.61393 1.89849,-6 29.50475,-6 22.13564,0 26.63684,0.33208 28.4,2.09524 2.45698,2.45697 2.59019,3.82191 0.715,7.32575 -1.2949,2.41954 -3.05097,2.57901 -28.4,2.57901 -19.23758,0 -27.48058,-0.46083 -28.61975,-1.6 z m 0,-18.66667 c -0.88,-0.88 -1.6,-2.86 -1.6,-4.4 0,-4.66038 2.67924,-6 12,-6 9.32075,0 11.99999,1.33962 11.99999,6 0,4.66039 -2.67924,6 -11.99999,6 -5.06667,0 -9.47879,-0.67878 -10.4,-1.6 z m 31.1619,-0.49524 c -3.92185,-3.92185 -1.29325,-9.90476 4.35167,-9.90476 4.39765,0 6.88642,2.16842 6.88642,6 0,5.70463 -7.00448,8.13839 -11.23809,3.90476 z m -101.08812,2.09524 c 1.55953,0 3.17924,0.55618 3.59936,1.23595 0.42013,0.67977 3.15553,3.13019 6.07869,5.44537 l 5.31483,4.20943 v -8.77871 -8.7787 H 111.33333 96 v 8.74604 8.74602 l 6.41914,-5.41269 c 3.53053,-2.97699 7.69512,-5.41271 9.25464,-5.41271 z M 153.33333,82.654879 V 11.976425 L 83,12.321546 12.66667,12.666667 12.32155,83 11.97643,153.33333 h 70.67845 70.67845 z M 58.93333,138.4 c -2.24569,-2.24569 -2.24569,-45.220972 0,-47.466667 1.16891,-1.16891 11.74616,-1.6 39.25773,-1.6 37.40294,0 37.67176,0.02005 39.73334,2.963342 1.64777,2.352542 2.0756,6.963414 2.0756,22.369995 0,15.40657 -0.42783,20.01745 -2.0756,22.36998 C 135.86282,139.97995 135.594,140 98.19106,140 70.67949,140 60.10224,139.56891 58.93333,138.4 Z m 67.73333,-23.73333 V 101.33333 H 98 69.33333 V 114.66667 128 H 98 126.66666 Z M 59.42857,75.238095 c -2.49536,-2.495359 -2.70973,-6.090264 -0.49524,-8.304762 2.26824,-2.268241 59.86509,-2.268241 62.13333,0 2.31005,2.310044 1.96793,5.653731 -0.83832,8.19335 -3.56558,3.226812 -57.58538,3.3258 -60.79977,0.111412 z m 0.8681,-18.647034 C 58.66684,55.449479 57.33333,53.383501 57.33333,52 c 0,-4.985865 4.97122,-6.666667 19.71767,-6.666667 15.91831,0 18.949,1.079043 18.949,6.74658 0,5.38922 -3.59803,6.586754 -19.79013,6.586754 -9.56267,0 -13.72495,-0.542898 -15.9132,-2.075606 z"
     id="path143"
     inkscape:connector-curvature="0" />
</svg>
