<?xml version="1.0" encoding="UTF-8" standalone="no"?>
<!-- Created with Inkscape (http://www.inkscape.org/) -->

<svg
   xmlns:dc="http://purl.org/dc/elements/1.1/"
   xmlns:cc="http://creativecommons.org/ns#"
   xmlns:rdf="http://www.w3.org/1999/02/22-rdf-syntax-ns#"
   xmlns:svg="http://www.w3.org/2000/svg"
   xmlns="http://www.w3.org/2000/svg"
   xmlns:sodipodi="http://sodipodi.sourceforge.net/DTD/sodipodi-0.dtd"
   xmlns:inkscape="http://www.inkscape.org/namespaces/inkscape"
   version="1.1"
   id="svg61"
   width="399.51611"
   height="350.29608"
   viewBox="0 0 399.51611 350.29609"
   sodipodi:docname="country-icon-3.svg"
   inkscape:version="0.92.4 (unknown)">

  <path
     style="stroke-width:1.33333337"
     d="m 245.63001,348.34993 c -4.2495,-2.97647 -3.98141,-9.19587 0.52363,-12.14768 3.12287,-2.04619 3.8538,-2.07985 7,-0.32248 4.8322,2.69913 5.5338,9.44609 1.29128,12.41768 -3.78643,2.65211 -5.09232,2.65988 -8.81491,0.0525 z m -37.9959,-5.15377 c -4.23458,-1.74134 -10.98135,-5.6441 -14.99282,-8.67279 -7.47201,-5.64141 -23.84022,-23.72311 -26.34045,-29.09784 -1.93611,-4.16204 0.6374,-9.34937 5.20737,-10.49637 3.08967,-0.77546 4.34158,-0.0732 8.84752,4.96322 17.5441,19.60938 22.45834,23.89908 33.07818,28.87446 11.75024,5.50494 13.84082,8.49714 10.01566,14.33508 -2.7134,4.14117 -5.9276,4.16033 -15.81546,0.0943 z m 85.51181,-6.38078 c -1.20176,-0.94776 -2.88919,-3.94726 -3.74985,-6.66558 -1.66386,-5.2551 -5.94763,-9.4046 -16.7294,-16.20506 -7.31111,-4.61137 -9.22892,-9.43314 -5.31048,-13.35158 3.34112,-3.34112 8.24342,-2.60392 16.65217,2.50412 9.67589,5.8778 16.25579,13.10612 19.38205,21.29216 2.1774,5.70144 2.22799,6.74232 0.47976,9.87145 -2.2079,3.95192 -7.3878,5.18575 -10.72425,2.55449 z m -75.81259,-20.78104 c -6.54636,-3.58144 -10.61749,-11.23445 -10.64473,-20.01018 -0.0213,-6.86346 0.1172,-7.12614 4.78255,-9.07547 2.64245,-1.10409 7.62132,-4.64227 11.06413,-7.86261 3.44281,-3.22036 7.93616,-6.49259 9.98523,-7.27164 8.10392,-3.08111 15.21632,4.92006 16.44801,18.50334 0.58233,6.42204 0.15953,9.0232 -2.28865,14.08047 -5.57227,11.51076 -19.4892,17.02892 -29.34654,11.63609 z m 14.5699,-17.12196 c 2.69454,-3.42556 3.76474,-8.54242 1.76344,-8.43134 -2.22931,0.12373 -11.19522,9.21661 -10.3833,10.53033 1.56162,2.52673 5.79146,1.49673 8.61986,-2.09899 z M 125.65247,280.0922 c -1.45362,-1.28334 -4.86451,-8.9023 -7.57976,-16.93103 -5.47021,-16.1749 -9.94963,-24.72981 -15.04902,-28.74098 -6.17719,-4.85898 -8.51165,-3.64728 -14.1562,7.34772 -7.84018,15.27188 -21.42771,25.99095 -32.9462,25.99095 -14.29325,0 -25.83102,-12.62185 -35.0735,-38.36898 C 16.41516,217.04173 13.90098,212.16837 9.14844,206.71247 2.60151,199.19663 3.68815,195.85769 15.61135,186.85376 34.80562,172.359 35.23389,166.04025 18,151.61085 6.66012,142.11632 0,132.22294 0,124.87248 0,122.71912 1.90843,116.12779 4.24097,110.22508 8.28185,99.999222 8.3983,99.200362 6.7092,93.292548 3.54151,82.213182 3.57646,79.421574 6.94545,74.425537 12.54971,66.114721 18.46386,65.654239 41.31611,71.749396 54.72156,75.3249 53.35067,75.566364 91.33333,62.939469 105.26667,58.307494 124.46667,52.753972 134,50.598312 c 19.75215,-4.466321 32.51705,-8.898126 33.57576,-11.657053 0.41364,-1.077945 -1.6124,-4.427004 -4.71328,-7.791052 -2.99133,-3.245213 -5.82416,-7.43585 -6.29517,-9.312527 -1.76858,-7.046538 3.07012,-16.443847 10.42542,-20.2474254 6.23052,-3.2219282 13.62638,-1.70759415 29.3497,6.0094794 20.76878,10.193412 30.29722,19.538135 30.34465,29.759591 0.0319,6.870257 1.69805,8.276897 11.53756,9.740422 7.64053,1.136452 9.31488,1.875309 10.98248,4.846359 1.76371,3.142258 1.73084,3.866786 -0.31717,6.992457 -2.1617,3.299157 -2.88386,3.486974 -13.40754,3.486974 -9.36521,0 -11.6991,-0.45333 -14.77,-2.868899 C 216.34016,56.117423 212,46.580404 212,40.41207 c 0,-3.520033 -1.05293,-5.340083 -5,-8.642721 -5.48827,-4.592222 -27.82212,-16.010477 -31.31613,-16.010477 -3.49094,0 -3.85434,2.099954 -0.83442,4.821804 C 178.63663,23.994045 184,35.401713 184,40.043497 c 0,2.678826 -1.66513,5.450683 -5.69559,9.481141 -4.65425,4.654246 -8.0648,6.481205 -18.65389,9.992481 -7.12707,2.36329 -18.51404,5.44958 -25.30441,6.85842 C 127.55575,67.784379 109.1,73.244724 93.33333,78.50964 58.1963,90.242842 52.79111,90.912066 34.15897,85.836109 26.94886,83.87186 20.71737,82.597056 20.31121,83.003212 c -0.40615,0.406156 -0.0423,3.061945 0.8085,5.901754 2.40328,8.021466 1.84689,15.554974 -1.78638,24.187234 C 17.5,117.44801 16,122.75224 16,124.87938 c 0,3.96954 0.69408,4.76473 17.19535,19.70022 8.52395,7.71513 12.07942,14.73396 12.07942,23.84593 0,9.37858 -3.65473,16.35828 -12.92385,24.68163 l -8.0071,7.19011 4.32847,8.7308 c 2.38066,4.80194 5.07613,11.1308 5.98992,14.06413 2.97893,9.56259 11.00402,23.45155 15.55689,26.92419 3.88222,2.9611 4.92494,3.2016 8.12837,1.87469 8.47046,-3.50857 18.1774,-16.15285 20.81629,-27.11535 1.12918,-4.69086 5.41874,-7.44888 13.25602,-8.52309 15.90812,-2.18045 27.93219,9.49797 39.11885,37.99432 1.17429,2.99133 1.47735,2.75139 5.8499,-4.63173 6.23187,-10.52258 11.9702,-14.33084 20.1742,-13.38868 8.0939,0.92952 16.87056,5.47304 28.43727,14.72145 5.13333,4.10447 10.08333,7.46601 11,7.47011 2.24725,0.0107 2.03633,-4.05838 -0.37573,-7.24742 -2.85839,-3.77912 -2.45083,-11.75849 0.81246,-15.9071 3.80859,-4.84184 6.40826,-6.0178 18.28034,-8.26915 13.5761,-2.57449 14.0786,-3.31257 13.09553,-19.23557 -0.90925,-14.72752 0.52603,-21.42848 5.41313,-25.27268 3.66334,-2.88158 12.96654,-3.77962 14.44094,-1.39399 1.38426,2.23979 2.61968,1.52331 5.17296,-3 1.34533,-2.38333 6.60354,-7.82912 11.68494,-12.10173 5.0814,-4.27263 10.78931,-10.1112 12.68423,-12.97464 l 3.44532,-5.20623 -4.14112,-4.71648 c -5.61416,-6.39417 -6.26108,-9.92519 -3.11959,-17.02705 3.27707,-7.40836 9.33883,-12.08183 19.46194,-15.0047 20.37417,-5.88268 32.77568,2.06802 32.80388,21.03083 0.012,8.41111 4.82504,6.04812 10.4402,-5.12624 3.66298,-7.28944 9.86629,-12.507 22.98372,-19.33143 12.27089,-6.38402 24.96405,-17.10256 23.34862,-19.716378 -2.06293,-3.337892 -16.70518,-6.915871 -50.09844,-12.242047 -20.91756,-3.33632 -21.21606,-3.435189 -22.77846,-7.544632 -0.97682,-2.569189 -0.7586,-4.213872 0.89362,-6.735493 2.08924,-3.188566 2.60735,-3.300665 11.7021,-2.53187 10.31612,0.872037 41.96722,6.427165 54.84941,9.626694 16.21051,4.026181 24.13917,13.536988 20.74084,24.879625 -2.20369,7.355251 -12.78745,17.406631 -26.23991,24.920011 -18.57642,10.37517 -20.04902,11.58062 -24.61712,20.15124 -6.62918,12.43763 -15.16296,16.85539 -25.7867,13.34923 -6.44639,-2.1275 -9.14719,-6.63256 -10.22624,-17.05787 -0.9825,-9.49233 -2.37527,-11.15162 -8.47474,-10.09646 -14.17584,2.45231 -17.05486,5.54773 -11.27869,12.12642 3.0616,3.48697 3.88256,5.69487 3.88256,10.44181 0,3.3109 -0.85089,7.66527 -1.89088,9.67638 -3.10269,5.99994 -11.60725,15.52274 -19.77579,22.14352 l -7.66666,6.214 v 8.0293 c 0,7.09674 -0.45268,8.482 -3.89744,11.92675 -4.83366,4.83365 -9.29107,4.96907 -14.66692,0.44559 L 244,202.18848 l -0.008,9.7852 c -0.004,5.38185 -0.61865,11.98583 -1.36572,14.67549 -1.98123,7.13315 -8.87861,12.58051 -18.21327,14.38432 -15.05405,2.90904 -13.82032,2.16851 -11.4681,6.88363 1.75065,3.50927 1.82673,5.26639 0.48717,11.25213 -1.94324,8.68333 -5.3596,13.252 -11.40039,15.24564 -5.96092,1.96728 -12.68,-0.91904 -24.69892,-10.60992 -9.58092,-7.72556 -17.17993,-12.0461 -21.18626,-12.0461 -1.89466,0 -4.2037,2.85737 -8.28776,10.25588 -6.50628,11.78647 -13.77371,20.41078 -17.19952,20.41078 -1.30009,0 -3.55313,-1.05 -5.00676,-2.33333 z m 133.31088,0.25773 c -3.69978,-2.59143 -3.83492,-7.71949 -0.29668,-11.25773 3.20922,-3.20923 5.12024,-3.33423 9.03665,-0.59107 3.65873,2.56268 3.93083,8.63553 0.52503,11.71775 -3.04326,2.7541 -5.47104,2.78844 -9.265,0.13106 z M 268,230.42553 c -3.63881,-3.63881 -3.34661,-7.63506 0.81169,-11.10089 11.39956,-9.5012 14.49139,-12.92605 20.83256,-23.07649 6.91343,-11.06648 10.34082,-13.80362 15.03098,-12.00383 1.10797,0.42517 2.73525,2.35489 3.61616,4.28827 1.37725,3.02276 1.16394,4.28888 -1.52255,9.03742 -8.37859,14.80966 -15.31152,23.7041 -22.95544,29.45014 -8.94552,6.72446 -11.86551,7.35328 -15.8134,3.40538 z m 7.53999,-163.771647 c -2.53375,-2.799752 -2.80392,-5.954329 -0.82642,-9.649333 1.59446,-2.979251 10.36038,-3.638398 13.01976,-0.979012 2.26536,2.265365 1.98431,8.491883 -0.49524,10.971427 -2.82905,2.829058 -8.9909,2.648343 -11.6981,-0.343082 z M 71.23405,51.314903 c -3.56797,-3.101357 -5.44893,-10.52883 -4.06388,-16.0473 2.02448,-8.066164 14.25128,-15.894303 33.56903,-21.492366 17.59901,-5.099993 23.28575,-4.304669 23.24038,3.250301 -0.0339,5.637656 -1.76871,6.850876 -14.72776,10.299376 -12.46694,3.317547 -21.30057,7.031111 -25.50215,10.720835 -1.75455,1.540805 -1.96706,2.721224 -0.96457,5.357957 2.7885,7.334324 -5.60287,13.081492 -11.55105,7.911197 z"
     id="path164"
     inkscape:connector-curvature="0" />
</svg>
