<?xml version="1.0" encoding="UTF-8" standalone="no"?>
<!-- Created with Inkscape (http://www.inkscape.org/) -->

<svg
   xmlns:dc="http://purl.org/dc/elements/1.1/"
   xmlns:cc="http://creativecommons.org/ns#"
   xmlns:rdf="http://www.w3.org/1999/02/22-rdf-syntax-ns#"
   xmlns:svg="http://www.w3.org/2000/svg"
   xmlns="http://www.w3.org/2000/svg"
   xmlns:sodipodi="http://sodipodi.sourceforge.net/DTD/sodipodi-0.dtd"
   xmlns:inkscape="http://www.inkscape.org/namespaces/inkscape"
   version="1.1"
   id="svg81"
   width="388.96213"
   height="243.40285"
   viewBox="0 0 388.96213 243.40285"
   sodipodi:docname="country-icon-1.svg"
   inkscape:version="0.92.4 (unknown)">
  <path
     style="stroke-width:1.33333337"
     d="m 170.29547,241.02706 c -8.04804,-2.76424 -16.35728,-10.65709 -17.96566,-17.06537 -1.16986,-4.66111 -3.12302,-6.99351 -5.86426,-7.00291 -1.19355,-0.004 -4.46802,-0.64552 -7.27659,-1.42541 -3.89368,-1.0812 -5.54368,-2.46425 -6.94715,-5.82323 -2.11882,-5.07106 -4.66409,-6.03682 -15.94634,-6.05061 -7.45527,-0.009 -8.15126,0.25608 -10.22135,3.89472 -3.05147,5.36361 -11.070318,7.77911 -18.467418,5.56288 -6.22442,-1.86488 -13.32557,-7.70197 -17.41022,-14.31107 -2.68839,-4.34992 -3.25489,-4.6153 -9.05112,-4.24009 -5.80276,0.37563 -6.2043,0.64639 -6.52577,4.40025 -0.77598,9.0611 -2.91005,13.71099 -6.93695,15.11478 -2.74595,0.95724 -4.93256,3.37462 -7.32751,8.10082 -7.08611,13.98376 -14.90171,13.66796 -20.42739,-0.82538 -2.60497,-6.83262 -4.31862,-9.11211 -9.82308,-13.06668 -10.48127003,-7.53004 -13.03117,-17.52415 -6.60383,-25.88307 1.9502,-2.53628 4.2545,-3.43536 10.77521,-4.20421 4.56198,-0.5379 8.92605,-1.60955 9.69794,-2.38143 0.98234,-0.98235 0.54103,-3.65701 -1.47088,-8.91444 -2.93192,-7.66159 -3.73111,-17.19108 -1.70921,-20.38049 0.63857,-1.00728 2.78981,-1.5833 4.97959,-1.33334 3.60705,0.41176 3.91029,0.91236 4.7089,7.77344 0.46947,4.03334 1.81947,9.56407 3,12.29051 3.23007,7.45987 2.77265,13.38629 -1.3515,17.51045 -3.61058,3.61058 -10.53407,6.17862 -16.69276,6.1916 -6.23133,0.0133 -6.05385,4.05716 0.42442,9.67051 3.17145,2.74801 6.09661,4.99801 6.50038,5 0.40376,0.001 2.44563,2.71128 4.53747,6.02068 l 3.80336,6.01707 2.49035,-4.09506 c 1.3697,-2.25228 4.27404,-5.10997 6.4541,-6.35041 2.79633,-1.59109 3.96623,-3.27665 3.97217,-5.72305 0.0148,-6.08026 2.83009,-11.8773 6.75344,-13.90614 4.87521,-2.52106 17.63,-2.52354 22.50154,-0.004 2.07944,1.07532 5.32918,4.59724 7.22165,7.82651 3.50288,5.9772 10.94092,10.87307 14.46463,9.52089 1.01353,-0.38892 2.50054,-2.44973 3.30446,-4.57957 2.07149,-5.488 8.526658,-6.97179 23.558578,-5.41517 12.57026,1.3017 17.38602,3.43786 19.82677,8.79472 0.83671,1.83638 3.02303,3.61177 4.93928,4.01093 8.72536,1.81749 12.22113,4.48459 15.45131,11.7886 4.04708,9.15117 7.35468,12.18709 15.37349,14.11079 6.01071,1.44194 6.82731,1.3075 12.59733,-2.07396 6.47351,-3.79374 13.97771,-4.78622 21.56719,-2.8524 3.70595,0.94428 4.33197,0.70081 5.15771,-2.00587 2.23524,-7.32693 7.92002,-9.52744 16.20425,-6.27248 2.06441,0.81113 13.53769,1.66019 25.49617,1.88679 l 21.74272,0.412 1.25728,-3.30691 c 0.69152,-1.81881 1.27196,-6.11785 1.2899,-9.55345 0.11973,-22.954 10.16094,-30.41192 25.4643,-18.9132 8.0085,6.01746 13.78326,6.79862 23.16976,3.13418 8.94802,-3.49325 12.99539,-3.64153 16.84047,-0.617 4.29508,3.37852 5.55311,9.11032 3.75781,17.1213 -0.92994,4.14958 -0.93498,6.55814 -0.0156,7.47748 2.42775,2.42774 5.76363,-8.32598 5.92992,-19.11596 0.14619,-9.48556 -0.13266,-10.48015 -5.42052,-19.33334 -3.06605,-5.13333 -6.81365,-10.92533 -8.32801,-12.8711 -2.71215,-3.48484 -2.84641,-3.50979 -8.97059,-1.66667 -8.68304,2.6132 -13.32477,2.33976 -16.64508,-0.98055 -2.60052,-2.60052 -2.78321,-3.82152 -2.07445,-13.86462 0.86261,-12.22335 3.34495,-19.48526 8.50059,-24.86788 3.08801,-3.22399 3.4132,-4.5475 3.23596,-13.17043 -0.1084,-5.27245 -0.50415,-10.08316 -0.8795,-10.690488 -1.41382,-2.28761 3.41164,-10.600014 7.65548,-13.187415 5.22444,-3.185249 12.68386,-3.496795 16.68154,-0.696712 3.14237,2.201011 4.98266,6.871895 7.06288,17.926475 1.79684,9.54867 6.80078,14.84334 17.00249,17.99033 2.35215,0.72558 2.99719,0.40214 2.98697,-1.49775 -0.0229,-4.27477 -6.59533,-16.73279 -12.4929,-23.680528 -8.80691,-10.375132 -10.38296,-13.400576 -10.38296,-19.931507 0,-10.543141 5.22806,-16.955935 10.35472,-12.701191 1.53602,1.274788 1.80464,3.262287 1.14954,8.50555 -0.82557,6.6076 -0.65658,7.085826 4.93155,13.956314 12.61481,15.509332 17.11969,25.020462 17.11969,36.144482 0,12.61957 -6.13264,14.51276 -22.86842,7.05961 -11.91976,-5.30838 -17.04747,-12.26254 -19.00634,-25.77629 -1.16866,-8.062346 -2.42672,-9.840535 -6.13042,-8.665023 -2.89198,0.917875 -2.97243,1.361235 -2.14323,11.809353 1.041,13.11667 -0.24405,18.08646 -6.45405,24.96018 -2.60198,2.88008 -4.73087,6.35104 -4.73087,7.71324 0,1.3622 -0.3804,5.25201 -0.84532,8.64401 l -0.84532,6.16728 7.01484,-2.08319 c 12.27329,-3.64477 16.50645,-0.85102 27.27311,17.99939 5.8426,10.22929 7.75,14.95301 8.33786,20.64891 0.82488,7.99228 -1.38613,21.89861 -4.41208,27.75014 -4.83705,9.35384 -13.216,11.78122 -20.11541,5.82743 -3.53985,-3.05469 -3.72819,-3.77487 -3.50255,-13.39308 0.23188,-9.88461 0.15839,-10.13909 -2.66666,-9.23253 -6.6674,2.13957 -12.63624,3.12545 -19.10396,3.15541 -5.8119,0.0269 -8.06267,-0.7744 -14.66667,-5.22173 -4.29064,-2.88946 -8.25568,-4.80495 -8.8112,-4.25664 -0.55551,0.54829 -1.56423,6.85469 -2.24157,14.01421 -1.66114,17.55777 -5.19212,22.52145 -15.93036,22.39407 -19.26118,-0.22848 -42.81396,-1.29412 -46.15138,-2.08811 -3.51622,-0.83652 -4.27138,-0.46505 -6.24385,3.07133 -2.7898,5.00179 -7.54968,6.30188 -16.35003,4.46575 -6.22396,-1.29859 -7.34984,-1.11068 -14.7196,2.45673 -9.2791,4.49164 -13.30482,4.70834 -23.35318,1.25704 z m 16.27634,-94.21392 c -5.08453,-2.58862 -7.42665,-6.22262 -6.29945,-9.7741 1.24993,-3.9382 4.60045,-4.34551 9.71979,-1.18159 l 4.72936,2.92291 5.00522,-2.88064 c 4.94794,-2.84768 5.0409,-2.85139 8.12032,-0.32394 2.49468,2.04752 2.829,3.02472 1.67864,4.90667 -4.37952,7.16469 -15.36478,10.19444 -22.95388,6.33069 z m -33.06897,-5.02772 c -0.38992,-1.01609 -0.52109,-4.46609 -0.29149,-7.66666 0.35232,-4.91131 0.89696,-5.88718 3.49084,-6.25489 1.69037,-0.23963 3.94037,0.28384 5,1.16326 2.33137,1.93486 2.55346,10.77891 0.32661,13.00576 -2.18101,2.18101 -7.65504,2.02213 -8.52596,-0.24747 z m 73.33333,0 c -0.38992,-1.01609 -0.52109,-4.46609 -0.29149,-7.66666 0.35232,-4.91131 0.89696,-5.88718 3.49084,-6.25489 1.69037,-0.23963 3.94037,0.28384 5,1.16326 2.33137,1.93486 2.55347,10.77891 0.32661,13.00576 -2.18101,2.18101 -7.65504,2.02213 -8.52596,-0.24747 z M 26.342382,126.38721 c -0.75913,-1.41845 -1.38024,-5.57242 -1.38024,-9.23103 0,-5.14026 0.75331,-7.54729 3.31472,-10.59135 3.30715,-3.93032 11.39378,-6.931938 18.67525,-6.931938 5.96252,0 10.65214,-3.50171 17.78847,-13.282537 6.65627,-9.122884 15.84685,-16.552731 22.58077,-18.254748 4.51836,-1.142027 10.82291,2.043971 13.220888,6.681161 1.23783,2.393684 2.39732,8.947415 2.78455,15.738908 0.45505,7.980796 1.223,11.851994 2.44411,12.320584 0.97932,0.3758 8.84798,1.08865 17.48591,1.58412 8.63793,0.49546 16.45254,1.49213 17.36582,2.21481 1.19928,0.949 3.44018,-0.58166 8.06794,-5.51083 7.40626,-7.888658 9.52092,-8.263582 19.13382,-3.392368 5.93969,3.009878 7.25361,3.233618 10.67274,1.81736 2.14455,-0.8883 7.3322,-5.882896 11.52812,-11.099109 9.47064,-11.773533 19.03072,-17.351785 28.09382,-16.392568 8.22093,0.870084 12.35186,5.327465 13.20953,14.253401 l 0.66451,6.915616 4.15117,-1.050957 c 2.28316,-0.578027 8.89895,-1.086632 14.70177,-1.130236 l 10.55059,-0.07928 3.59931,-8.060456 c 4.58729,-10.272971 9.76832,-14.652497 19.61952,-16.584369 15.86521,-3.111252 17.22941,-4.313115 22.25645,-19.608084 3.70181,-11.262884 5.36291,-13.362975 18.57003,-23.477611 2.67909,-2.051785 5.79577,-5.943597 6.92594,-8.648471 5.51759,-13.2054663 20.55476,-19.1722987 26.59259,-10.5520907 2.6904,3.8410818 2.52041,8.3391427 -0.66501,17.5977497 -3.46222,10.063089 -3.38896,10.891339 1.17176,13.24978 4.59361,2.375448 5.97818,5.355848 4.10988,8.846809 -1.74316,3.257123 -4.71224,3.247378 -11.51175,-0.03779 -8.45857,-4.086739 -9.52267,-8.2851 -5.42172,-21.391447 1.83579,-5.867047 2.95844,-10.65817 2.4948,-10.64694 -2.16073,0.05233 -4.26213,2.57498 -7.73932,9.290748 -2.36776,4.573025 -6.00233,8.923683 -9.77032,11.69526 -10.65936,7.840589 -11.55036,8.959951 -14.62955,18.379227 -5.52784,16.909702 -10.41604,21.904668 -24.13586,24.663078 -12.58112,2.52947 -14.015,3.501876 -18.2835,12.399291 -5.87416,12.244347 -7.8124,13.523177 -20.76545,13.700817 -5.96877,0.0819 -13.6666,0.60587 -17.10629,1.16446 -9.00315,1.46208 -12.90182,0.10394 -15.15046,-5.277838 -1.04246,-2.494964 -1.55121,-6.257218 -1.13053,-8.360564 1.78441,-8.922075 -8.32771,-8.517678 -16.98464,0.679238 -2.57777,2.738559 -6.60341,7.481976 -8.94588,10.540934 -4.56405,5.96006 -13.48396,11.10494 -19.25313,11.10494 -1.94886,0 -6.23671,-1.30852 -9.52855,-2.90783 l -5.98519,-2.90782 -7.304,6.90782 c -7.59556,7.18356 -10.40209,8.14799 -14.83362,5.09736 -1.589,-1.09384 -8.69651,-2.18589 -17.9563,-2.75894 -23.842288,-1.47549 -26.739648,-3.90924 -27.347518,-22.971545 -0.19071,-5.980856 -0.75118,-11.528656 -1.24548,-12.328444 -2.10697,-3.409148 -11.89513,4.867053 -20.8055,17.591701 -5.83426,8.331738 -11.24696,11.524908 -22.154,13.069538 -11.12291,1.5752 -12.92842,2.95966 -12.08269,9.26498 0.35661,2.65877 0.089,5.83366 -0.59465,7.05532 -1.7019,3.04112 -7.36421,2.81758 -9.06363,-0.35782 z"
     id="path122"
     inkscape:connector-curvature="0" />
</svg>
