<?xml version="1.0" encoding="UTF-8" standalone="no"?>
<!-- Created with Inkscape (http://www.inkscape.org/) -->

<svg
   xmlns:dc="http://purl.org/dc/elements/1.1/"
   xmlns:cc="http://creativecommons.org/ns#"
   xmlns:rdf="http://www.w3.org/1999/02/22-rdf-syntax-ns#"
   xmlns:svg="http://www.w3.org/2000/svg"
   xmlns="http://www.w3.org/2000/svg"
   xmlns:sodipodi="http://sodipodi.sourceforge.net/DTD/sodipodi-0.dtd"
   xmlns:inkscape="http://www.inkscape.org/namespaces/inkscape"
   version="1.1"
   id="svg91"
   width="400.008"
   height="447.13956"
   viewBox="0 0 400.008 447.13956"
   sodipodi:docname="country-icon-4.svg"
   inkscape:version="0.92.4 (unknown)">
  <path
     style="stroke-width:1.33333337"
     d="m 220.62079,446.0518 c -6.56035,-2.41577 -12.6343,-7.69134 -17.21996,-14.95652 -6.41896,-10.16972 -17.26352,-35.61088 -21.95647,-51.50949 -2.27287,-7.7 -7.25588,-20.23537 -11.07335,-27.85637 -9.7524,-19.46922 -10.08145,-25.19538 -2.37925,-41.40288 5.48205,-11.53571 5.65733,-12.30312 4.83385,-21.16348 -1.22105,-13.13812 -3.82816,-19.31242 -12.16365,-28.80667 -9.44463,-10.75757 -11.37451,-15.54028 -11.37451,-28.18872 0,-11.77428 -2.10466,-16.51315 -9.31728,-20.97881 -5.62757,-3.4843 -15.39483,-3.61139 -27.34938,-0.35591 -11.35832,3.09312 -30.355089,4.0958 -41.343839,2.18219 -12.19523,-2.12371 -29.62754,-8.92835 -31.41127,-12.26128 -2.30621,-4.30919 -0.95667,-9.53915 3.03738,-11.77094 3.10859,-1.73701 4.23042,-1.76628 8,-0.2087 21.26104,8.78498 36.71729,10.2623 57.598739,5.50534 23.2016,-5.28552 36.95256,-2.74362 48.32352,8.93268 6.90231,7.08764 9.79547,15.31611 9.79547,27.85939 v 9.67748 l 7.46925,8.41833 c 8.62179,9.71731 11.92489,16.23639 14.58373,28.78276 3.4029,16.05734 2.68064,23.73144 -3.38632,35.98024 -2.93333,5.9222 -5.33333,12.55978 -5.33333,14.75016 0,2.19039 2.63645,8.99012 5.8588,15.11052 3.22233,6.1204 8.53497,19.53716 11.80585,29.81503 8.93935,28.08945 21.31466,53.61269 27.06475,55.81921 6.37915,2.44791 18.8814,-2.87776 31.60257,-13.46193 11.82519,-9.83871 17.75644,-18.58144 18.83567,-27.76399 1.11008,-9.44502 3.34761,-13.2335 11.54751,-19.55165 6.07209,-4.67864 6.52862,-5.48401 8.69189,-15.33333 3.09027,-14.06995 5.63652,-18.61578 15.50547,-27.68187 9.59665,-8.81595 14.40409,-15.79097 14.414,-20.913 0.004,-1.94307 -2.1643,-9.14307 -4.8179,-16 -3.68669,-9.52648 -4.82674,-14.42783 -4.83333,-20.77961 -0.0145,-14.0806 3.6016,-19.4957 33.55755,-50.251 24.35058,-25.00036 32.1177,-34.8393 30.09138,-38.11795 -0.44821,-0.72521 -4.64998,-1.31857 -9.33728,-1.31857 -12.72634,0 -21.13338,-2.29962 -29.96324,-8.19596 -14.69918,-9.81575 -24.54986,-25.90015 -43.97541,-71.804044 -9.15604,-21.636324 -15.55579,-32.320683 -21.06648,-35.17037 -2.04195,-1.05593 -8.79819,-3.143313 -15.01388,-4.638628 -6.21569,-1.495314 -15.16503,-4.250009 -19.8874,-6.121544 -10.76028,-4.264421 -12.08052,-4.25744 -12.08052,0.06387 0,2.164705 -1.70256,5.169231 -4.53333,8 -8.66355,8.663551 -20.13484,6.055359 -51.23367,-11.64884 -9.29481,-5.291431 -17.64967,-10.529796 -18.56633,-11.640812 -2.28307,-2.767121 -2.0968,-8.826852 0.33333,-10.843681 2.57131,-2.133991 2.55967,-5.875667 -0.0249,-8.020703 -1.40728,-1.167937 -4.3559,-1.416521 -9.66667,-0.814951 -4.20295,0.476083 -17.0645,1.728411 -28.58124,2.782951 -21.215999,1.942663 -30.927349,3.776859 -34.195769,6.458607 -0.99107,0.81318 -3.92627,4.804516 -6.52266,8.869636 -4.93824,7.73169 -5.87795,8.850244 -28.06285,33.403513 -7.54647,8.352069 -15.45233,18.216037 -17.56861,21.919929 -5.84465,10.229277 -10.70379,26.230047 -11.63577,38.315687 -0.6129,7.94794 -1.49193,11.50242 -3.28898,13.29947 C 8.3904409,148.48282 -0.08545907,142.56349 6.5092862e-4,132.40598 0.07995093,123.05032 3.4510209,107.40423 7.8223609,96.103093 12.773621,83.302707 19.294111,73.598375 33.122191,58.449824 c 19.14892,-20.97748 25.54113,-28.723784 29.51895,-35.772099 2.2168,-3.927952 6.19789,-8.518302 8.9808,-10.355223 5.96167,-3.9351189 18.36824,-6.9699693 32.998849,-8.0720563 5.86666,-0.4419212 18.65088,-1.7406513 28.40938,-2.8860669 14.31143,-1.67982255 18.85155,-1.77211799 23.47638,-0.47724746 10.48181,2.93472666 17.23282,11.95824066 16.60348,22.19246066 -0.36431,5.924089 -0.35595,5.936019 7.45517,10.641381 8.90973,5.367156 21.44472,11.78913 25.38892,13.007347 2.18608,0.675199 2.70465,0.172469 2.87743,-2.789515 0.27618,-4.734884 5.50077,-9.101422 13.86018,-11.583901 6.65112,-1.975173 6.78852,-1.953992 21.49307,3.313517 8.13953,2.91577 19.06744,6.263107 24.28424,7.43853 11.39705,2.567925 16.04953,4.753808 21.91165,10.29477 6.4715,6.116968 12.45103,16.643204 20.95896,36.89573 14.1217,33.615689 22.51731,49.644649 30.54351,58.313899 8.89263,9.60509 13.58995,11.67101 29.40429,12.93224 6.6,0.52636 13.82636,1.81088 16.05859,2.85448 9.07015,4.24049 11.68567,17.32167 5.86677,29.34192 -2.02493,4.18295 -11.61869,15.08703 -28.5138,32.40823 -14.00414,14.35732 -26.90072,28.43686 -28.65904,31.28784 -4.38326,7.1071 -4.04878,13.8664 1.32698,26.8164 6.11574,14.73257 6.31134,26.18076 0.6232,36.47368 -2.21818,4.01388 -7.64776,10.39036 -12.40022,14.5628 -9.96658,8.75017 -10.55752,9.72281 -13.55769,22.31543 -2.84564,11.94398 -7.92885,20.84762 -14.06856,24.64217 -2.57439,1.59105 -4.94532,4.19328 -5.26875,5.78271 -2.9747,14.61892 -4.13344,17.59139 -9.79178,25.11864 -16.74363,22.27396 -47.30451,38.41932 -62.28236,32.9039 z m 129.22853,-47.58764 c -2.99097,-1.39885 -6.73893,-4.19706 -8.32881,-6.21826 -6.75115,-8.5827 -7.11251,-24.17908 -0.8094,-34.93452 3.32517,-5.67396 3.49128,-6.6342 2.15157,-12.4381 -2.829,-12.2559 1.77412,-20.24526 15.70701,-27.26176 8.65627,-4.35922 9.22186,-4.95108 14.58798,-15.26544 7.01093,-13.47592 11.19085,-16.15058 17.33685,-11.09362 1.84001,1.51397 4.00825,6.6369 6.17464,14.58889 l 3.33883,12.25556 -9.47644,31.74444 c -10.00722,33.52243 -14.01952,42.88284 -20.29786,47.35341 -5.4355,3.87042 -13.71985,4.38631 -20.38437,1.2694 z m 12.61812,-18.94673 c 1.36076,-2.2376 5.57291,-14.54316 9.36032,-27.34569 3.78741,-12.80252 7.27513,-24.29088 7.75051,-25.52967 0.71568,-1.86501 0.17854,-1.76404 -3.12348,0.58721 -2.19328,1.56175 -6.52068,3.85302 -9.61646,5.0917 -6.21518,2.48682 -8.71248,5.66544 -6.8116,8.66998 2.69151,4.25422 1.38264,14.82984 -2.73928,22.13348 -4.42318,7.83747 -5.17586,15.095 -1.90476,18.36611 2.99183,2.99184 4.28427,2.63188 7.08475,-1.97312 z M 13.287451,175.58579 c -3.3315401,-3.33155 -3.4454701,-9.54855 -0.22834,-12.46001 5.36575,-4.85595 14.89501,-0.72307 14.89501,6.46001 0,4.27903 -4.38763,8.66667 -8.66667,8.66667 -1.83333,0 -4.53333,-1.2 -6,-2.66667 z"
     id="path101"
     inkscape:connector-curvature="0" />
</svg>
