<?xml version="1.0" encoding="UTF-8" standalone="no"?>
<!-- Created with Inkscape (http://www.inkscape.org/) -->

<svg
   xmlns:dc="http://purl.org/dc/elements/1.1/"
   xmlns:cc="http://creativecommons.org/ns#"
   xmlns:rdf="http://www.w3.org/1999/02/22-rdf-syntax-ns#"
   xmlns:svg="http://www.w3.org/2000/svg"
   xmlns="http://www.w3.org/2000/svg"
   xmlns:sodipodi="http://sodipodi.sourceforge.net/DTD/sodipodi-0.dtd"
   xmlns:inkscape="http://www.inkscape.org/namespaces/inkscape"
   version="1.1"
   id="svg71"
   width="399.5567"
   height="330.22534"
   viewBox="0 0 399.5567 330.22535"
   sodipodi:docname="country-icon-2.svg"
   inkscape:version="0.92.4 (unknown)">

  <path
     style="stroke-width:1.33333337"
     d="m 220.34803,328.40662 c -5.01648,-2.21434 -6.368,-3.78036 -17.19547,-19.92459 -7.61937,-11.36081 -8.80453,-13.94012 -8.80453,-19.16161 0,-5.75659 -0.48244,-6.51612 -10.50506,-16.53874 -5.77777,-5.77778 -11.16268,-10.50505 -11.96645,-10.50505 -0.84573,0 0.26963,4.63425 2.64744,11 7.365,19.71712 8.10808,22.35356 7.25656,25.74629 -1.03621,4.1286 -6.17165,6.33375 -10.72164,4.60384 -6.27404,-2.38538 -26.53365,-21.9062 -30.58888,-29.4734 -2.12511,-3.96553 -3.9792,-7.36734 -4.12019,-7.55957 -0.141,-0.19223 -3.14049,0.92629 -6.66556,2.4856 -5.37458,2.37743 -7.86073,2.69207 -15.40083,1.94908 -8.78741,-0.86588 -9.0528,-0.80008 -11.68587,2.89773 -1.48184,2.08106 -6.635372,5.76415 -11.452292,8.18466 -4.81692,2.4205 -10.32578,6.29801 -12.24189,8.61668 -8.55572,10.35314 -16.31043,17.50718 -21.44033,19.77958 -4.91891,2.17892 -7.16212,2.31938 -19.68141,1.23231 l -14.12974,-1.22691 -10.3186,-9.60774 C -3.4369615,285.28982 -3.5458015,284.43699 8.3088385,261.53532 19.118558,240.65233 22.421968,236.31149 29.586718,233.57525 c 6.77706,-2.58819 11.44293,-1.65496 26.86582,5.37348 l 9.91432,4.5181 2.65725,-5.20865 c 1.46149,-2.86476 2.65725,-7.66235 2.65725,-10.66131 0,-2.99897 0.85394,-7.10398 1.89764,-9.12228 2.18717,-4.22953 10.62385,-12.24756 19.76682,-18.78594 3.48211,-2.49015 6.14237,-4.7163 5.91169,-4.94699 -0.23069,-0.23068 -2.47573,0.17032 -4.98899,0.89111 -2.51325,0.7208 -11.65078,1.31053 -20.30563,1.31053 -15.12543,0 -15.86917,-0.13309 -19.1659,-3.42983 -5.21642,-5.21642 -3.95393,-13.50758 4.95944,-32.57017 l 7.16963,-15.33333 0.0443,-15.77843 c 0.0437,-15.55658 0.0962,-15.82308 3.73225,-18.95433 11.14845,-9.60063 32.841912,-6.30261 37.881602,5.75908 1.86252,4.45764 1.87032,5.92465 0.0759,14.28212 -1.72447,8.03168 -1.74664,10.2352 -0.16103,16.00288 6.07608,22.10182 6.44382,24.53222 4.69942,31.05898 -0.92555,3.463 -2.95013,7.64636 -4.49907,9.29636 -3.34981,3.56838 -2.85503,3.712 2.89898,0.84152 5.36575,-2.67678 10.25998,-0.92325 11.52838,4.13046 1.10829,4.41576 -0.18114,5.82982 -13.24883,14.52961 -5.9748,3.97769 -13.637682,9.67655 -17.028632,12.66409 -5.62997,4.96022 -6.21697,6.05416 -6.75959,12.59747 -0.57641,6.95075 -6.69867,21.17056 -11.43964,26.57018 -3.03175,3.45295 -5.29645,2.98494 -20.96875,-4.33333 -7.85228,-3.66667 -15.68883,-6.66667 -17.41456,-6.66667 -2.59844,0 -4.52788,2.46331 -11.22691,14.33334 -4.44908,7.88333 -8.43676,15.67092 -8.8615,17.30576 -0.61854,2.38073 0.74261,4.35693 6.83787,9.92765 6.85786,6.26771 8.28835,6.99257 14.47096,7.33289 3.77344,0.20772 8.32016,0.72915 10.10381,1.15874 2.76862,0.66682 5.03409,-1.08124 15.48734,-11.95024 8.20516,-8.5315 14.41071,-13.73502 18.81151,-15.77392 3.61195,-1.67344 8.80694,-5.52178 11.54443,-8.55186 5.99969,-6.64093 9.598632,-7.71616 19.173682,-5.72838 6.48476,1.34622 8.00806,1.20565 13.7631,-1.27011 12.34272,-5.30969 19.35294,-2.65484 26.43414,10.01089 2.42057,4.32955 4.03593,6.37191 3.5897,4.53858 -0.44622,-1.83334 -1.16797,-6.43196 -1.60388,-10.21919 -0.71105,-6.17793 -0.4381,-7.24027 2.65495,-10.33333 7.20108,-7.20107 19.30916,-3.3216 34.66047,11.10532 11.62273,10.92286 16.90822,18.93192 16.90822,25.62086 0,3.88071 1.79092,7.66238 8.08512,17.0723 4.44682,6.64805 8.63538,12.08737 9.30792,12.08737 0.67256,0 1.6124,-1.55223 2.08856,-3.4494 0.62082,-2.47352 0.0517,-4.45392 -2.01132,-7 -1.5824,-1.95283 -3.7686,-5.5006 -4.85824,-7.88393 -1.71018,-3.74064 -1.7276,-4.9402 -0.12733,-8.77024 2.11645,-5.06539 7.16127,-7.87683 18.18193,-10.13271 10.68711,-2.1876 11.13599,-2.64815 8.56896,-8.79191 -2.75708,-6.59862 -1.90116,-12.03208 4.2546,-27.00839 7.49063,-18.22395 12.3221,-21.5304 23.94682,-16.38824 7.77472,3.43913 7.26656,3.45981 17.71685,-0.72098 10.42804,-4.17186 14.70812,-3.85649 30.73857,2.26496 12.16095,4.64382 8.21495,4.51984 42.7742,1.34395 l 8.66667,-0.79644 -6.18339,-2.38635 c -7.2581,-2.8011 -15.37556,-10.23238 -17.97624,-16.4567 -2.91946,-6.98726 -2.30696,-18.12875 1.49296,-27.15695 1.83334,-4.3558 3.33334,-8.50209 3.33334,-9.21396 0,-0.71188 -4.2,-5.82403 -9.33334,-11.36033 -5.13333,-5.53631 -9.33333,-11.24386 -9.33333,-12.68344 0,-2.73427 12.95861,-14.67398 24.79967,-22.84971 l 6.53368,-4.51122 -6.66667,-1.07518 c -16.76349,-2.70357 -23.33333,-6.67708 -23.33333,-14.11222 0,-2.71053 -1.44581,-5.373088 -4.66667,-8.593937 -2.6094,-2.609396 -4.66666,-6.009343 -4.66666,-7.712367 0,-5.137722 -4.90055,-13.548483 -14.74788,-25.311647 C 301.72662,46.94666 300.49174,44.0741 301.44345,30.588319 c 0.69254,-9.813481 0.48485,-11.398059 -1.7925,-13.675398 -5.38221,-5.382216 -6.98521,-3.031084 -27.26425,39.988806 -7.76712,16.477133 -15.45328,31.384141 -17.08036,33.126685 -7.83224,8.388039 -19.36627,9.121245 -26.78719,1.702834 -3.95962,-3.958281 -4.19488,-4.779934 -4.63929,-16.203097 -0.42304,-10.874065 -0.76825,-12.230009 -3.58323,-14.074445 -2.84284,-1.8627 -15.39732,-5.789964 -18.63036,-5.827908 -0.74162,-0.0087 -6.74162,7.524069 -13.33333,16.739497 -25.92672,36.246397 -27.309,37.965497 -33.68224,41.889647 -11.79716,7.26379 -11.85456,7.3327 -12.79832,15.36253 -0.48533,4.12947 -0.5792,7.99875 -0.20859,8.59842 0.37062,0.59965 2.8845,0.3303 5.58642,-0.59858 3.26458,-1.12232 6.28882,-1.29662 9.01518,-0.51964 3.94852,1.12532 4.97931,2.04616 8.27984,7.3968 1.43631,2.32846 1.68108,2.29088 4.97959,-0.76441 4.54317,-4.20819 5.56184,-10.11648 2.85653,-16.56777 -2.56486,-6.11633 -1.36377,-11.19854 5.0555,-21.39151 11.92544,-18.93603 29.34397,-18.952127 37.71009,-0.0348 2.25115,5.09025 4.06279,7.23993 6.94951,8.24624 4.31029,1.50258 9.60489,10.61768 9.60489,16.53562 0,4.78734 -4.51781,9.96734 -12,13.75884 -7.61147,3.85703 -11.4686,8.39031 -13.48357,15.8472 -3.8742,14.33752 -8.00291,19.8952 -18.3961,24.76311 -5.66652,2.65405 -7.3033,2.91582 -10.14272,1.6221 -7.25829,-3.3071 -6.00277,-10.39323 2.5803,-14.56322 7.04536,-3.42289 9.22926,-6.49485 11.44976,-16.10567 1.89573,-8.20512 7.94217,-16.82645 15.04741,-21.45541 4.36917,-2.84644 4.72816,-3.47279 3.05672,-5.33333 -1.04161,-1.15946 -4.03304,-6.81139 -6.6476,-12.55985 -2.91333,-6.40536 -5.40747,-10.24519 -6.44231,-9.91822 -0.9287,0.29343 -3.6761,3.47074 -6.10533,7.06068 -3.11631,4.60533 -4.1454,7.32932 -3.49513,9.25155 4.84449,14.3206 -0.73907,29.84417 -13.01839,36.19405 -5.83403,3.01689 -14.88208,1.8368 -19.50439,-2.54388 -3.06544,-2.90519 -4.4223,-3.27961 -9.6777,-2.67052 -7.61422,0.88247 -13.64441,-1.96152 -16.70395,-7.878 -2.73481,-5.28855 -1.93237,-21.54091 1.48229,-30.02197 1.88438,-4.68027 3.89864,-6.61769 11.78903,-11.33928 7.73785,-4.630318 10.76495,-7.500604 16.19735,-15.358333 17.50662,-25.322565 34.31381,-47.184622 37.33193,-48.55977 2.72209,-1.24027 5.85163,-0.861936 16.96725,2.051203 22.07754,5.78599 26.38182,10.35 26.38182,27.973717 0,16.740478 4.5177,14.863747 13.43462,-5.580962 8.92592,-20.465357 26.02919,-54.03336 29.83523,-58.5565818 6.88861,-8.1866574 19.666,-8.8461691 28.08991,-1.4498766 6.14973,5.3995354 7.81549,11.2407014 6.73853,23.6294044 -0.98812,11.366748 -1.22303,10.842742 11.51116,25.677409 7.54503,8.789567 15.24627,21.281258 16.42293,26.638602 0.52467,2.388791 2.28986,4.64017 4.55751,5.81282 4.12689,2.134099 7.18669,8.164293 6.51655,12.84267 -0.4108,2.867808 0.21912,3.165198 9.56022,4.513438 15.02214,2.16822 18.66667,5.0309 18.66667,14.66215 0,7.27295 -2.88561,11.49279 -13.00433,19.01713 -13.1078,9.74706 -13.4704,10.31882 -9.33476,14.71919 11.01368,11.71864 12.59496,19.00576 7.00576,32.28512 -1.83334,4.3558 -3.33334,9.46752 -3.33334,11.35937 0,8.32475 6.3094,13.94772 18,16.04172 7.69312,1.37799 12.33491,4.08978 14.6441,8.55527 2.73201,5.28312 2.54582,8.35215 -0.76183,12.55713 -5.59659,7.11492 -11.91551,8.47104 -51.45928,11.04387 -11.72011,0.76255 -12.83599,0.58559 -26.09455,-4.13819 l -13.85086,-4.93481 -7.90546,3.69703 c -9.03346,4.22454 -16.48062,4.65609 -22.90681,1.32738 l -4.33469,-2.24532 -3.45871,7.7016 c -4.61183,10.26932 -5.44607,16.62187 -2.69807,20.54519 6.3319,9.04004 -1.46664,20.7835 -15.84856,23.86566 -4.39557,0.94202 -8.51916,2.17502 -9.16352,2.73999 -0.64436,0.56499 0.1056,2.65096 1.66667,4.63549 3.58965,4.56351 3.83529,15.25587 0.50284,21.88871 -2.62215,5.21904 -9.96027,10.71991 -14.19511,10.64105 -1.54156,-0.0287 -4.60282,-0.84673 -6.80282,-1.81782 z M 95.605818,179.01166 c 3.62131,-3.27724 3.60522,-11.21127 -0.0437,-21.52629 -3.00264,-8.48816 -3.78832,-20.1934 -2.01442,-30.01124 1.09518,-6.06143 1.06066,-6.14542 -2.84729,-6.92701 -8.76065,-1.75213 -9.26259,-0.93735 -9.13462,14.82807 l 0.11554,14.23478 -7,15.11952 c -3.85,8.31574 -7,15.7373 -7,16.49237 0,0.88353 4.48776,1.17657 12.59113,0.82216 9.87583,-0.43193 13.18249,-1.08587 15.33333,-3.03236 z m 47.742212,9.82484 c -3.32263,-1.93525 -3.15483,-10.02639 0.24568,-11.84629 3.8452,-2.05788 7.40618,-1.67656 9.881,1.05808 6.05828,6.69432 -2.14722,15.43582 -10.12668,10.78821 z"
     id="path143"
     inkscape:connector-curvature="0" />
</svg>
