<?xml version="1.0" encoding="UTF-8" standalone="no"?>
<!-- Created with Inkscape (http://www.inkscape.org/) -->

<svg
   xmlns:dc="http://purl.org/dc/elements/1.1/"
   xmlns:cc="http://creativecommons.org/ns#"
   xmlns:rdf="http://www.w3.org/1999/02/22-rdf-syntax-ns#"
   xmlns:svg="http://www.w3.org/2000/svg"
   xmlns="http://www.w3.org/2000/svg"
   xmlns:sodipodi="http://sodipodi.sourceforge.net/DTD/sodipodi-0.dtd"
   xmlns:inkscape="http://www.inkscape.org/namespaces/inkscape"
   version="1.1"
   id="svg45"
   width="266.11655"
   height="266.07397"
   viewBox="0 0 266.11655 266.07398"
   sodipodi:docname="phone-icon.svg"
   inkscape:version="0.92.4 (unknown)">
  <metadata
     id="metadata51">
    <rdf:RDF>
      <cc:Work
         rdf:about="">
        <dc:format>image/svg+xml</dc:format>
        <dc:type
           rdf:resource="http://purl.org/dc/dcmitype/StillImage" />
        <dc:title></dc:title>
      </cc:Work>
    </rdf:RDF>
  </metadata>
  <defs
     id="defs49" />
  <sodipodi:namedview
     pagecolor="#ffffff"
     bordercolor="#666666"
     borderopacity="1"
     objecttolerance="10"
     gridtolerance="10"
     guidetolerance="10"
     inkscape:pageopacity="0"
     inkscape:pageshadow="2"
     inkscape:window-width="1920"
     inkscape:window-height="1007"
     id="namedview47"
     showgrid="false"
     inkscape:zoom="0.79895323"
     inkscape:cx="377.45623"
     inkscape:cy="121.40387"
     inkscape:window-x="0"
     inkscape:window-y="24"
     inkscape:window-maximized="1"
     inkscape:current-layer="svg45" />
  <path
     style="fill:#05abfb;stroke-width:1.33333325"
     d="m 181.06606,264.29502 c -18.1451,-3.92939 -23.26586,-7.60596 -56.33838,-40.44952 -16.6861,-16.57059 -30.3361,-30.83549 -30.33333,-31.69977 0.007,-2.26703 3.83632,-5.76191 6.31284,-5.76191 1.16452,0 15.44003,13.20061 31.72335,29.33469 26.24134,26.00087 30.64946,29.81621 38.78744,33.57159 7.79706,3.59806 11.13046,4.32442 22.10812,4.81744 22.10614,0.9928 36.57378,-5.45655 54.07329,-24.10464 6.6072,-7.04088 7,-7.852 7,-14.45519 v -6.99575 l -23.60422,-23.73673 c -24.25488,-24.39106 -28.58273,-27.48078 -36.16146,-25.81621 -2.06605,0.45379 -6.00989,2.68253 -8.76409,4.95279 l -5.00766,4.12772 22.10205,22.24094 c 12.15612,12.23252 22.10204,23.20812 22.10204,24.39024 0,2.49825 -3.4827,6.33977 -5.74761,6.33977 -0.85641,0 -11.56241,-9.99229 -23.79109,-22.2051 l -22.23396,-22.20511 -5.89175,1.64959 c -4.55122,1.27427 -7.23154,1.29747 -11.78033,0.102 -5.14325,-1.35173 -9.71488,-5.37392 -36.11878,-31.77781 -26.4039,-26.40394 -30.42608,-30.97556 -31.77782,-36.11881 -1.19541,-4.54848 -1.1723,-7.22907 0.10155,-11.778833 L 89.47543,92.826157 69.93741,73.255512 C 59.1915,62.491657 50.39939,52.762131 50.39939,51.634343 c 0,-2.833761 2.685,-5.250524 5.83329,-5.250524 1.60566,0 10.27747,7.583209 22.22157,19.432025 l 19.5883,19.432023 4.12496,-5.00429 c 2.26872,-2.752361 4.49623,-6.694695 4.95001,-8.760742 1.66457,-7.578739 -1.42515,-11.906591 -25.81621,-36.161474 L 57.56458,11.717153 h -6.99574 c -6.60319,0 -7.41432,0.392794 -14.45519,7 C 17.48907,36.194589 11.0354,50.65464 11.98019,72.790452 c 0.48082,11.265176 1.12479,14.126353 5.01014,22.260033 3.8685,8.098425 7.96139,12.870785 30.93373,36.069085 16.65843,16.82229 26.47533,27.72364 26.47533,29.4 0,3.22049 -2.41711,5.86425 -5.36151,5.86425 -1.18884,0 -14.47366,-12.45 -29.52183,-27.66667 C 16.02368,114.96173 11.55035,109.77735 7.8734,102.04478 -6.4082,72.010772 -1.16406,41.891437 22.81797,16.211715 36.27358,1.8035759 45.77117,-2.2577025 58.1193,1.1164537 c 5.4844,1.4986265 9.3839,4.7706741 30.77725,25.8250423 25.76308,25.354846 29.42173,30.380406 29.47356,40.485148 0.0424,8.259966 -2.92249,14.163456 -11.97117,23.836523 -6.81257,7.28267 -7.99955,9.287903 -7.99955,13.514133 0,4.68764 1.60733,6.56867 29.01112,33.95121 27.34772,27.32655 29.29436,28.98864 33.95121,28.98864 4.19876,0 6.2234,-1.20046 13.49166,-7.99956 9.67306,-9.04868 15.57656,-12.01352 23.83652,-11.97116 10.10474,0.0519 15.1303,3.71048 40.48514,29.47356 21.05437,21.39336 24.32641,25.29285 25.82504,30.77725 3.37416,12.34814 -0.68712,21.84572 -15.09525,35.30134 -20.79796,19.423 -43.76138,26.42704 -68.83877,20.99644 z"
     id="path55"
     inkscape:connector-curvature="0" />
</svg>
