<?xml version="1.0" encoding="UTF-8" standalone="no"?>
<!-- Created with Inkscape (http://www.inkscape.org/) -->

<svg
   xmlns:dc="http://purl.org/dc/elements/1.1/"
   xmlns:cc="http://creativecommons.org/ns#"
   xmlns:rdf="http://www.w3.org/1999/02/22-rdf-syntax-ns#"
   xmlns:svg="http://www.w3.org/2000/svg"
   xmlns="http://www.w3.org/2000/svg"
   xmlns:sodipodi="http://sodipodi.sourceforge.net/DTD/sodipodi-0.dtd"
   xmlns:inkscape="http://www.inkscape.org/namespaces/inkscape"
   version="1.1"
   id="svg61"
   width="262.39581"
   height="202.97165"
   viewBox="0 0 262.39582 202.97165"
   sodipodi:docname="soc-icon-2.svg"
   inkscape:version="0.92.4 (unknown)">
  <path
     style="stroke-width:1.33333337"
     d="M 67.33333,202.59549 C 65.5,202.27472 59.5,201.35149 54,200.54386 40.70166,198.59114 25.1858,193.62558 11.33334,186.88922 L 0,181.37789 16,180.55174 c 8.8,-0.45437 19.9,-1.8406 24.66667,-3.08048 9.85056,-2.56228 31.88937,-12.97838 35.19972,-16.63628 2.10236,-2.32309 1.86664,-2.46878 -5.16908,-3.19493 -16.76727,-1.73053 -36.63982,-16.71823 -41.18857,-31.06401 -0.83382,-2.62969 -0.49091,-2.74564 6.424,-2.1722 4.01767,0.33318 11.97639,0.16367 17.68605,-0.37668 L 64,123.04471 55.16574,120.0587 C 30.94027,111.87044 12.76434,94.547267 9.48765,76.52368 l -0.87815,-4.830326 7.1921,2.37269 c 7.86602,2.595018 27.21991,6.044228 28.23259,5.031554 0.34825,-0.348254 -2.6753,-2.911834 -6.71901,-5.696843 C 28.01769,66.997332 15.68817,53.747372 12.50383,46.737158 9.50572,40.136924 9.29128,28.840623 11.99494,19.929342 15.5195,8.3123797 15.38915,8.3157847 26.93022,19.53925 51.83208,43.755812 83.6023,58.243875 121.33333,62.589579 L 128,63.357418 V 51.022379 c 0,-10.592976 0.50466,-13.411779 3.57341,-19.959125 4.46267,-9.521395 13.65225,-19.471632 22.36028,-24.2111383 18.51467,-10.0769451 44.34946,-8.9170145 59.5331,2.672916 l 6.24627,4.7678823 8.08131,-1.589902 c 4.44472,-0.874446 11.98729,-3.0076943 16.76126,-4.7405523 4.77396,-1.732857 8.89618,-2.934414 9.16047,-2.670125 0.88256,0.882567 -3.71545,8.6346513 -8.07437,13.6130613 -2.36963,2.706395 -7.85143,7.214494 -12.18179,10.017998 -7.26577,4.703914 -7.57447,5.096673 -4,5.08942 5.14056,-0.0104 28.53511,-3.562284 31.85544,-4.836419 4.59076,-1.761641 -6.30584,10.21596 -16.53705,18.177612 -8.62996,6.715596 -9.42468,7.746391 -9.4344,12.236855 -0.0368,17.024774 -6.47799,42.207418 -15.37595,60.114478 -21.2038,42.67242 -58.94932,71.21344 -106.21633,80.31478 -10.92497,2.10362 -39.9202,3.71233 -46.41832,2.57537 z"
     id="path133"
     inkscape:connector-curvature="0" />
</svg>
