<?xml version="1.0" encoding="UTF-8" standalone="no"?>
<!-- Created with Inkscape (http://www.inkscape.org/) -->

<svg
   xmlns:dc="http://purl.org/dc/elements/1.1/"
   xmlns:cc="http://creativecommons.org/ns#"
   xmlns:rdf="http://www.w3.org/1999/02/22-rdf-syntax-ns#"
   xmlns:svg="http://www.w3.org/2000/svg"
   xmlns="http://www.w3.org/2000/svg"
   xmlns:sodipodi="http://sodipodi.sourceforge.net/DTD/sodipodi-0.dtd"
   xmlns:inkscape="http://www.inkscape.org/namespaces/inkscape"
   version="1.1"
   id="svg81"
   width="266.755"
   height="266.82684"
   viewBox="0 0 266.75501 266.82685"
   sodipodi:docname="soc-icon-3.svg"
   inkscape:version="0.92.4 (unknown)">
  <path
     style="stroke-width:1.33333325"
     d="M 57.8291,264.77951 C 31.25739,259.00584 7.7636,235.27481 2.08365,208.47112 -0.69455,195.3608 -0.69455,71.562059 2.08365,58.451746 7.86513,31.168929 31.16893,7.8651331 58.45175,2.0836486 c 13.11031,-2.77819812 136.90906,-2.77819812 150.01938,0 28.13341,5.961733 52.63316,31.5020254 56.95868,59.3777904 1.76693,11.387006 1.76693,132.612981 0,143.999991 -4.32552,27.87576 -28.82527,53.41605 -56.95868,59.37778 -12.66924,2.68474 -138.24054,2.63496 -150.64203,-0.0597 z m 156.299,-25.9258 c 8.54828,-4.19856 20.52706,-16.17734 24.72562,-24.72562 l 3.27438,-6.66666 v -74 -73.999991 l -3.16566,-6.373385 c -4.6856,-9.433459 -13.5799,-18.576463 -23.08422,-23.729701 l -8.41678,-4.56358 h -74 -74 l -7.17705,3.778845 c -9.99602,5.263087 -18.9895,14.102463 -23.58861,23.184409 l -3.901,7.703412 -0.37835,71.251421 c -0.42341,79.73797 -0.47965,79.15733 8.86427,91.52026 2.70112,3.57385 7.82406,8.69951 11.38429,11.39033 12.2302,9.2436 10.57222,9.08331 90.79645,8.77835 l 72,-0.27371 z M 115.71653,199.46039 C 92.18137,192.9904 72.22634,172.5366 66.90065,149.42435 c -1.76509,-7.66008 -1.76509,-24.26577 0,-31.92584 3.9076,-16.95803 18.62468,-36.156152 33.99394,-44.344365 13.3395,-7.106824 33.53362,-9.709018 48.52977,-6.253497 23.68975,5.458761 45.13911,26.908129 50.59787,50.597862 1.76509,7.66007 1.76509,24.26576 0,31.92584 -5.39831,23.4274 -25.4,43.71169 -49.40207,50.10007 -8.78939,2.33937 -26.27773,2.30729 -34.90363,-0.064 z m 37.10555,-25.28725 c 8.36533,-4.09278 18.40957,-14.44742 22.39663,-23.08874 4.04936,-8.77637 4.02282,-26.24502 -0.0535,-35.24594 -3.97085,-8.76782 -13.98595,-18.997381 -22.87108,-23.360801 -6.40325,-3.144588 -9.15589,-3.682888 -18.83272,-3.682888 -9.67682,0 -12.42946,0.5383 -18.83272,3.682888 -8.85343,4.347848 -18.86485,14.553941 -22.91522,23.360801 -4.0791,8.86932 -4.09128,26.35104 -0.0245,35.19053 3.35288,7.28783 12.07903,17.16836 18.86822,21.36431 11.71891,7.24268 29.5633,7.99414 42.26487,1.77984 z m 41.20417,-99.712503 c -11.55634,-10.590598 -4.58489,-29.009338 10.97424,-28.994214 5.75701,0.0056 12.86095,3.759716 15.12707,7.993984 3.9513,7.383093 0.46784,19.645249 -6.62248,23.311795 -6.77871,3.505407 -14.07641,2.639383 -19.47883,-2.311565 z"
     id="path91"
     inkscape:connector-curvature="0" />
</svg>
