<?xml version="1.0" encoding="UTF-8" standalone="no"?>
<!-- Created with Inkscape (http://www.inkscape.org/) -->

<svg
   xmlns:dc="http://purl.org/dc/elements/1.1/"
   xmlns:cc="http://creativecommons.org/ns#"
   xmlns:rdf="http://www.w3.org/1999/02/22-rdf-syntax-ns#"
   xmlns:svg="http://www.w3.org/2000/svg"
   xmlns="http://www.w3.org/2000/svg"
   xmlns:sodipodi="http://sodipodi.sourceforge.net/DTD/sodipodi-0.dtd"
   xmlns:inkscape="http://www.inkscape.org/namespaces/inkscape"
   version="1.1"
   id="svg71"
   width="266.78751"
   height="562.66669"
   viewBox="0 0 266.78751 562.66669"
   sodipodi:docname="soc-icon-1.svg"
   inkscape:version="0.92.4 (unknown)">
  <path
     style="stroke-width:1.33333337"
     d="M 60,422.00002 V 281.33334 H 30 0 v -47.97449 -47.9745 l 29.66667,-0.35884 29.66666,-0.35884 0.76267,-44.66666 C 60.87633,94.299473 61.63444,86.988045 67.33315,70.202887 76.29313,43.81188 90.88699,26.61269 114,15.204983 138.4163,3.154019 161.74366,0.036266 227.66666,0.01319 L 265.33333,0 v 48.565603 48.565602 l -33.66667,0.4344 c -32.81708,0.423436 -33.8349,0.518516 -40.33333,3.767735 -4.92308,2.46154 -7.53847,4.90256 -10,9.33333 -3.27619,5.89715 -3.34076,6.58856 -3.76625,40.33334 l -0.43292,34.33333 h 44.82666 44.82668 l -0.73269,4.33333 c -0.40298,2.38334 -2.53834,21.73334 -4.74524,43.00001 -2.20691,21.26666 -4.35714,40.91666 -4.77827,43.66666 l -0.76571,5 H 216.54946 177.33333 V 422.00002 562.66669 H 118.66666 60 Z"
     id="path112"
     inkscape:connector-curvature="0" />
</svg>
