<?xml version="1.0" encoding="UTF-8" standalone="no"?>
<!-- Created with Inkscape (http://www.inkscape.org/) -->

<svg
   xmlns:dc="http://purl.org/dc/elements/1.1/"
   xmlns:cc="http://creativecommons.org/ns#"
   xmlns:rdf="http://www.w3.org/1999/02/22-rdf-syntax-ns#"
   xmlns:svg="http://www.w3.org/2000/svg"
   xmlns="http://www.w3.org/2000/svg"
   xmlns:sodipodi="http://sodipodi.sourceforge.net/DTD/sodipodi-0.dtd"
   xmlns:inkscape="http://www.inkscape.org/namespaces/inkscape"
   version="1.1"
   id="svg45"
   width="188.71414"
   height="188.91432"
   viewBox="0 0 188.71414 188.91432"
   sodipodi:docname="telegram-icon.svg"
   inkscape:version="0.92.4 (unknown)">
  <path
     style="fill:#01abfc;stroke-width:1.33333325"
     d="m 0.05440432,186.92245 c -0.89636,-2.33588 9.53805998,-13.90115 12.54188968,-13.90115 4.24789,0 3.20102,4.37504 -2.41648,10.09885 -6.1203897,6.23623 -8.8046197,7.24422 -10.12540968,3.8023 z m 46.74240968,0.1974 c -1.21306,-3.16119 0.50334,-6.35379 3.14265,-5.8455 1.47604,0.28426 2.33737,1.66503 2.33737,3.74695 0,3.80084 -4.20837,5.41241 -5.48002,2.09855 z m 9.70224,-8.32078 c -2.25831,-2.2583 -0.18158,-5.76045 8.74441,-14.74641 9.54381,-9.60793 13.69381,-11.66967 15.26226,-7.58233 0.55824,1.45473 -2.46494,5.41181 -9.67723,12.66666 -10.02741,10.08656 -12.34336,11.64816 -14.32944,9.66208 z m 62.666656,-1.33333 c -2.16983,-2.16983 -0.26892,-5.36803 8.66978,-14.58655 6.4984,-6.70182 10.55371,-9.85789 12.66667,-9.85789 5.57576,0 3.46404,4.37527 -7.25483,15.03128 -9.95705,9.89865 -12.13814,11.35664 -14.08162,9.41316 z M 20.044344,166.89623 c -0.57663,-1.50266 4.60465,-7.55557 17.69065,-20.66666 17.57043,-17.60412 23.20851,-21.53728 23.20851,-16.19041 0,2.65628 -35.77635,38.98214 -38.39244,38.98214 -0.93019,0 -2.05821,-0.95628 -2.50672,-2.12507 z m 67.96591,-25.55256 -12.26657,-22.32237 -26.1585,-7.92009 c -27.31569,-8.27046 -30.87368,-9.81485 -29.69401,-12.889021 1.05766,-2.756207 67.25242,-41.47627 70.00158,-40.946829 1.2944,0.249279 2.54682,1.457291 2.78315,2.684472 0.31899,1.656363 -7.35814,6.852256 -29.79688,20.166589 l -30.22658,17.935352 4.47886,1.400052 c 2.46338,0.770025 12.51735,3.891785 22.34218,6.937245 l 17.86331,5.53719 5.61741,-5.78581 C 117.47501,70.584751 164.94349,20.954749 164.94349,20.417689 c 0,-0.374768 -4.95,2.250027 -11,5.832875 -6.05,3.582849 -16.60295,9.832829 -23.45098,13.888846 -12.49179,7.398742 -16.70469,8.229261 -15.95285,3.144897 0.29633,-2.003938 9.62927,-8.179717 35.05927,-23.199362 19.06049,-11.2576411 35.56049,-20.29420698 36.66667,-20.08125718 1.75933,0.3386905 2.05436,9.75638468 2.35558,75.19665618 0.27079,58.827326 -0.0141,75.104156 -1.33333,76.188846 -1.19912,0.98591 -9.21383,-0.93072 -28.09619,-6.71889 l -26.41848,-8.09829 -13.60428,13.55798 c -8.12921,8.10155 -14.66832,13.55356 -16.24818,13.54702 -2.03874,-0.008 -5.451546,-5.12027 -14.910466,-22.33334 z m 28.232066,1.04583 c 4.33511,-4.38083 7.61633,-8.16187 7.2916,-8.40232 -0.78379,-0.58037 -15.24438,-4.96588 -16.37428,-4.96588 -0.48555,0 -0.88282,4.8 -0.88282,10.66667 0,5.86666 0.46879,10.66666 1.04174,10.66666 0.57296,0 4.58865,-3.5843 8.92376,-7.96513 z m 5.447,-52.70153 C 154.5749,42.589702 154.3581,43.094227 131.7159,66.354637 120.65134,77.721304 105.23997,93.757425 97.468434,101.99046 l -14.13008,14.96916 7.80257,14.27196 7.80258,14.27197 0.66666,-12.57446 0.666656,-12.57446 z M 180.63429,49.749082 180.27682,18.47686 145.61016,68.53162 c -19.06667,27.530118 -34.83863,50.78819 -35.0488,51.6846 -0.24878,1.06112 11.84788,5.35751 34.66666,12.31263 l 35.0488,10.6828 0.35747,-31.09517 c 0.1966,-17.102347 0.1966,-45.167676 0,-62.367398 z m -80.942896,5.989093 c -2.54682,-1.574023 -1.11373,-6.050204 1.937026,-6.050204 1.68373,0 2.7955,1.030932 3.05223,2.830296 0.44045,3.086909 -2.32094,4.869019 -4.989256,3.219908 z"
     id="path55"
     inkscape:connector-curvature="0" />
</svg>
